<?xml version="1.0" encoding="UTF-8" standalone="no"?>
<!-- Created with Inkscape (http://www.inkscape.org/) -->
<svg
   xmlns:dc="http://purl.org/dc/elements/1.1/"
   xmlns:cc="http://creativecommons.org/ns#"
   xmlns:rdf="http://www.w3.org/1999/02/22-rdf-syntax-ns#"
   xmlns:svg="http://www.w3.org/2000/svg"
   xmlns="http://www.w3.org/2000/svg"
   xmlns:sodipodi="http://sodipodi.sourceforge.net/DTD/sodipodi-0.dtd"
   xmlns:inkscape="http://www.inkscape.org/namespaces/inkscape"
   width="297mm"
   height="210mm"
   id="svg2383"
   sodipodi:version="0.32"
   inkscape:version="0.46"
   sodipodi:docname="sheep-metasheep.svg"
   inkscape:output_extension="org.inkscape.output.svg.inkscape">
  <defs
     id="defs2385">
    <inkscape:perspective
       sodipodi:type="inkscape:persp3d"
       inkscape:vp_x="0 : 372.04724 : 1"
       inkscape:vp_y="0 : 1000 : 0"
       inkscape:vp_z="1052.3622 : 372.04724 : 1"
       inkscape:persp3d-origin="526.18109 : 248.03149 : 1"
       id="perspective2392" />
  </defs>
  <sodipodi:namedview
     inkscape:document-units="mm"
     pagecolor="#ffffff"
     bordercolor="#666666"
     borderopacity="1.0"
     inkscape:pageopacity="0.0"
     inkscape:pageshadow="2"
     inkscape:zoom="0.75024142"
     inkscape:cx="39.39169"
     inkscape:cy="380"
     inkscape:current-layer="layer1"
     id="namedview2387"
     showgrid="false"
     inkscape:window-width="1678"
     inkscape:window-height="792"
     inkscape:window-x="1680"
     inkscape:window-y="19" />
  <metadata
     id="metadata2389">
    <rdf:RDF>
      <cc:Work
         rdf:about="">
        <dc:format>image/svg+xml</dc:format>
        <dc:type
           rdf:resource="http://purl.org/dc/dcmitype/StillImage" />
      </cc:Work>
    </rdf:RDF>
  </metadata>
  <g
     inkscape:label="Layer 1"
     inkscape:groupmode="layer"
     id="layer1">
    <path
       style="fill:#b3b3b3"
       d="M 654.25289,523.57887 L 654.03261,396.9741 L 793.90232,399.46472 L 935.29247,397.78119 L 937.03326,520.21185 L 938.77405,642.64248 L 797.3839,644.326 L 655.99375,646.00952 L 654.25289,523.57887 z"
       id="path2398"
       sodipodi:nodetypes="ccccccccc" />
    <path
       sodipodi:nodetypes="ccccccccc"
       id="path2400"
       d="M 277.04098,371.62778 L 276.8207,245.02301 L 416.69041,247.51363 L 558.08056,245.8301 L 559.82135,368.26076 L 561.56214,490.69139 L 420.17199,492.37491 L 278.78184,494.05843 L 277.04098,371.62778 z"
       style="fill:#b3b3b3" />
    <path
       style="fill:#b3b3b3"
       d="M 590.08375,267.90682 L 590.0532,247.68881 L 609.44989,248.08655 L 629.05744,247.81769 L 629.29885,267.36913 L 629.54026,286.92057 L 609.93271,287.18941 L 590.32516,287.45826 L 590.08375,267.90682 z"
       id="path2402"
       sodipodi:nodetypes="ccccccccc" />
    <path
       sodipodi:nodetypes="ccccccccc"
       id="path2404"
       d="M 591.41665,343.88237 L 591.3861,323.66436 L 610.78279,324.0621 L 630.39034,323.79324 L 630.63175,343.34468 L 630.87316,362.89612 L 611.26561,363.16496 L 591.65806,363.43381 L 591.41665,343.88237 z"
       style="fill:#b3b3b3" />
    <path
       style="fill:#b3b3b3"
       d="M 976.62599,419.85791 L 976.59544,399.6399 L 995.99213,400.03764 L 1015.5997,399.76878 L 1015.8411,419.32022 L 1016.0825,438.87166 L 996.47495,439.1405 L 976.8674,439.40935 L 976.62599,419.85791 z"
       id="path2406"
       sodipodi:nodetypes="ccccccccc" />
    <path
       sodipodi:nodetypes="ccccccccc"
       id="path2408"
       d="M 975.29308,490.50184 L 975.26253,470.28383 L 994.65922,470.68157 L 1014.2668,470.41271 L 1014.5082,489.96415 L 1014.7496,509.51559 L 995.14204,509.78443 L 975.53449,510.05328 L 975.29308,490.50184 z"
       style="fill:#b3b3b3" />
    <path
       style="fill:#b3b3b3"
       d="M 976.62598,555.81415 L 976.59543,535.59614 L 995.99212,535.99388 L 1015.5997,535.72502 L 1015.8411,555.27646 L 1016.0825,574.8279 L 996.47494,575.09674 L 976.86739,575.36559 L 976.62598,555.81415 z"
       id="path2410"
       sodipodi:nodetypes="ccccccccc" />
    <text
       xml:space="preserve"
       style="font-size:40px;font-style:normal;font-weight:normal;fill:#000000;fill-opacity:1;stroke:none;stroke-width:1px;stroke-linecap:butt;stroke-linejoin:miter;stroke-opacity:1;font-family:Bitstream Vera Sans"
       x="295.90475"
       y="229.59343"
       id="text2416"><tspan
         sodipodi:role="line"
         id="tspan2418"
         x="295.90475"
         y="229.59343">metasheep</tspan></text>
    <text
       xml:space="preserve"
       style="font-size:40px;font-style:normal;font-weight:normal;fill:#000000;fill-opacity:1;stroke:none;stroke-width:1px;stroke-linecap:butt;stroke-linejoin:miter;stroke-opacity:1;font-family:Bitstream Vera Sans"
       x="719.76831"
       y="376.21289"
       id="text2420"><tspan
         sodipodi:role="line"
         id="tspan2422"
         x="719.76831"
         y="376.21289">sheep</tspan></text>
    <text
       xml:space="preserve"
       style="font-size:28px;font-style:normal;font-weight:normal;fill:#000000;fill-opacity:1;stroke:none;stroke-width:1px;stroke-linecap:butt;stroke-linejoin:miter;stroke-opacity:1;font-family:Bitstream Vera Sans"
       x="297.23764"
       y="284.24252"
       id="text2424"><tspan
         sodipodi:role="line"
         id="tspan2426"
         x="297.23764"
         y="284.24252">parents</tspan></text>
    <flowRoot
       xml:space="preserve"
       id="flowRoot2428"
       style="fill:black;stroke:none;stroke-opacity:1;stroke-width:1px;stroke-linejoin:miter;stroke-linecap:butt;fill-opacity:1;font-family:Bitstream Vera Sans;font-style:normal;font-weight:normal;font-size:28"><flowRegion
         id="flowRegion2430"><rect
           id="rect2432"
           width="109.29815"
           height="34.65551"
           x="193.27112"
           y="285.57541" /></flowRegion><flowPara
         id="flowPara2434"></flowPara></flowRoot>    <flowRoot
       xml:space="preserve"
       id="flowRoot2436"
       style="fill:black;stroke:none;stroke-opacity:1;stroke-width:1px;stroke-linejoin:miter;stroke-linecap:butt;fill-opacity:1;font-family:Bitstream Vera Sans;font-style:normal;font-weight:normal;font-size:28"><flowRegion
         id="flowRegion2438"><rect
           id="rect2440"
           width="229.25954"
           height="51.983265"
           x="294.57184"
           y="312.23349" /></flowRegion><flowPara
         id="flowPara2442"></flowPara></flowRoot>    <flowRoot
       xml:space="preserve"
       id="flowRoot2444"
       style="font-size:28px;font-style:normal;font-weight:normal;fill:#000000;fill-opacity:1;stroke:none;stroke-width:1px;stroke-linecap:butt;stroke-linejoin:miter;stroke-opacity:1;font-family:Bitstream Vera Sans"
       transform="translate(325.22864,145.28657)"><flowRegion
         id="flowRegion2446"><rect
           id="rect2448"
           width="125.293"
           height="31.989702"
           x="354.55255"
           y="312.23349" /></flowRegion><flowPara
         id="flowPara2450">roles</flowPara></flowRoot>    <flowRoot
       xml:space="preserve"
       id="flowRoot2452"
       style="font-size:28px;font-style:normal;font-weight:normal;fill:#000000;fill-opacity:1;stroke:none;stroke-width:1px;stroke-linecap:butt;stroke-linejoin:miter;stroke-opacity:1;font-family:Bitstream Vera Sans"
       transform="translate(-1.3329043,-9.3303299)"><flowRegion
         id="flowRegion2454"><rect
           id="rect2456"
           width="213.26468"
           height="31.989702"
           x="297.23764"
           y="394.87357" /></flowRegion><flowPara
         id="flowPara2458">properties</flowPara></flowRoot>    <flowRoot
       xml:space="preserve"
       id="flowRoot2460"
       style="font-size:28px;font-style:normal;font-weight:normal;fill:#000000;fill-opacity:1;stroke:none;stroke-width:1px;stroke-linecap:butt;stroke-linejoin:miter;stroke-opacity:1;font-family:Bitstream Vera Sans"
       transform="translate(-2.6658085,3.9987128)"><flowRegion
         id="flowRegion2462"><rect
           id="rect2464"
           width="222.59502"
           height="35.988415"
           x="297.23764"
           y="445.52393" /></flowRegion><flowPara
         id="flowPara2466">metasheep</flowPara></flowRoot>    <text
       id="text2468"
       y="434.86072"
       x="678.44824"
       style="font-size:28px;font-style:normal;font-weight:normal;fill:#000000;fill-opacity:1;stroke:none;stroke-width:1px;stroke-linecap:butt;stroke-linejoin:miter;stroke-opacity:1;font-family:Bitstream Vera Sans"
       xml:space="preserve"><tspan
         y="434.86072"
         x="678.44824"
         id="tspan2470"
         sodipodi:role="line">parents</tspan></text>
    <flowRoot
       transform="translate(-57.314887,5.3316213)"
       style="font-size:28px;font-style:normal;font-weight:normal;fill:#000000;fill-opacity:1;stroke:none;stroke-width:1px;stroke-linecap:butt;stroke-linejoin:miter;stroke-opacity:1;font-family:Bitstream Vera Sans"
       id="flowRoot2472"
       xml:space="preserve"><flowRegion
         id="flowRegion2474"><rect
           y="312.23349"
           x="354.55255"
           height="31.989702"
           width="125.293"
           id="rect2476" /></flowRegion><flowPara
         id="flowPara2478">roles</flowPara></flowRoot>    <flowRoot
       transform="translate(375.87901,129.29171)"
       style="font-size:28px;font-style:normal;font-weight:normal;fill:#000000;fill-opacity:1;stroke:none;stroke-width:1px;stroke-linecap:butt;stroke-linejoin:miter;stroke-opacity:1;font-family:Bitstream Vera Sans"
       id="flowRoot2480"
       xml:space="preserve"><flowRegion
         id="flowRegion2482"><rect
           y="394.87357"
           x="297.23764"
           height="31.989702"
           width="213.26468"
           id="rect2484" /></flowRegion><flowPara
         id="flowPara2486">properties</flowPara></flowRoot>    <flowRoot
       transform="translate(375.87901,147.95237)"
       style="font-size:28px;font-style:normal;font-weight:normal;fill:#000000;fill-opacity:1;stroke:none;stroke-width:1px;stroke-linecap:butt;stroke-linejoin:miter;stroke-opacity:1;font-family:Bitstream Vera Sans"
       id="flowRoot2488"
       xml:space="preserve"><flowRegion
         id="flowRegion2490"><rect
           y="445.52393"
           x="297.23764"
           height="35.988415"
           width="222.59502"
           id="rect2492" /></flowRegion><flowPara
         id="flowPara2494">metasheep</flowPara></flowRoot>    <path
       style="fill:none;fill-rule:evenodd;stroke:#000000;stroke-width:1px;stroke-linecap:butt;stroke-linejoin:miter;stroke-opacity:1"
       d="M 827.73355,544.15884 C 833.35387,542.5389 845.31856,538.22508 853.05874,540.16013 C 859.31035,541.72303 864.63047,542.82594 873.0523,542.82594 C 883.94836,542.82594 891.28348,548.15755 902.37619,548.15755 C 910.37362,548.15755 918.37104,548.15755 926.36847,548.15755 C 932.58869,548.15755 938.80891,548.15755 945.02913,548.15755"
       id="path2496" />
    <path
       style="fill:none;fill-rule:evenodd;stroke:#000000;stroke-width:1px;stroke-linecap:butt;stroke-linejoin:miter;stroke-opacity:1"
       d="M 942.36332,537.49432 C 944.18316,537.49432 959.1462,549.73362 961.02398,553.48917 C 963.67494,558.79109 948.4384,553.93125 943.69623,557.48788"
       id="path2498" />
    <path
       style="fill:none;fill-rule:evenodd;stroke:#000000;stroke-width:1px;stroke-linecap:butt;stroke-linejoin:miter;stroke-opacity:1"
       d="M 767.75286,482.84524 C 771.46635,490.27221 827.67031,484.82879 841.0626,488.17686 C 861.98712,493.40799 884.42198,492.17557 906.37491,492.17557 C 914.56118,492.17557 924.57419,492.06023 930.36718,493.50848 C 938.27816,495.48622 949.96292,493.50848 958.35817,493.50848"
       id="path2500" />
    <path
       style="fill:none;fill-rule:evenodd;stroke:#000000;stroke-width:1px;stroke-linecap:butt;stroke-linejoin:miter;stroke-opacity:1"
       d="M 939.69751,477.51363 C 944.26182,478.6547 954.35569,485.50729 958.35817,489.50977 C 961.82828,492.97987 958.2155,499.41077 957.02527,504.17171 C 955.62026,509.79173 945.31753,504.09961 939.69751,505.50462"
       id="path2502" />
    <path
       style="fill:none;fill-rule:evenodd;stroke:#000000;stroke-width:1px;stroke-linecap:butt;stroke-linejoin:miter;stroke-opacity:1"
       d="M 813.07161,421.53165 C 812.88302,422.28601 837.00289,421.53165 858.39035,421.53165 C 873.80117,421.53165 889.18589,420.19874 905.042,420.19874 C 913.27064,420.19874 921.20826,421.15557 930.36718,418.86584 C 937.14233,417.17205 942.04903,420.19874 949.02784,420.19874 C 949.91645,420.19874 950.80505,420.19874 951.69365,420.19874"
       id="path2504" />
    <path
       style="fill:none;fill-rule:evenodd;stroke:#000000;stroke-width:1px;stroke-linecap:butt;stroke-linejoin:miter;stroke-opacity:1"
       d="M 941.03042,402.87099 C 942.4318,402.87099 955.38334,414.5581 959.69108,418.86584 C 967.37692,426.55168 960.80108,428.19617 951.69365,428.19617 C 945.81548,428.19617 934.83044,437.40277 930.36718,440.19231"
       id="path2506" />
    <path
       style="fill:none;fill-rule:evenodd;stroke:#000000;stroke-width:1px;stroke-linecap:butt;stroke-linejoin:miter;stroke-opacity:1"
       d="M 417.19904,278.91089 C 406.19865,267.9105 448.29379,280.2438 463.85069,280.2438 C 473.63475,280.2438 484.25846,279.34767 493.17458,281.5767 C 503.79067,284.23072 520.12658,281.50322 530.4959,278.91089 C 540.41604,276.43086 549.57314,280.70196 558.48689,276.24508 C 564.00288,273.48709 565.46299,272.24637 571.81593,272.24637"
       id="path2516" />
    <path
       style="fill:none;fill-rule:evenodd;stroke:#000000;stroke-width:1px;stroke-linecap:butt;stroke-linejoin:miter;stroke-opacity:1"
       d="M 567.81722,258.91733 C 568.96268,258.34459 575.05327,273.38943 577.14755,277.57799 C 582.15233,287.58754 580.03235,284.24251 566.48432,284.24251 C 562.62107,284.24251 557.71411,285.19681 555.82108,285.57541"
       id="path2518" />
    <path
       style="fill:none;fill-rule:evenodd;stroke:#000000;stroke-width:1px;stroke-linecap:butt;stroke-linejoin:miter;stroke-opacity:1"
       d="M 379.87772,340.22449 C 368.95781,340.22449 406.22739,340.22449 441.19131,340.22449 C 446.52293,340.22449 451.85455,340.22449 457.18617,340.22449 C 480.41883,340.22449 503.76907,332.22706 529.163,332.22706 C 539.86357,332.22706 545.51602,331.25233 551.82237,337.55868 C 555.79561,341.53192 563.70771,338.58606 567.81722,337.55868"
       id="path2520" />
    <path
       style="fill:none;fill-rule:evenodd;stroke:#000000;stroke-width:1px;stroke-linecap:butt;stroke-linejoin:miter;stroke-opacity:1"
       d="M 555.82108,324.22964 C 555.45287,326.07068 566.65174,336.56063 569.15012,341.55739 C 571.50301,346.26317 563.97405,345.77268 557.15399,350.88772 C 555.4384,352.17441 553.43099,352.74922 551.82237,353.55353"
       id="path2548" />
    <path
       style="fill:none;fill-rule:evenodd;stroke:#000000;stroke-width:1px;stroke-linecap:butt;stroke-linejoin:miter;stroke-opacity:1"
       d="M 446.52293,409.53551 C 444.08555,411.36354 465.42992,413.26258 482.51135,417.53294 C 498.57586,421.54906 515.63642,418.86584 531.82881,418.86584 C 540.62402,418.86584 550.27076,421.53165 561.1527,421.53165 C 573.61625,421.53165 586.05995,425.53036 598.47402,425.53036 C 609.71266,425.53036 613.93627,430.86198 626.46501,430.86198 C 627.79791,430.86198 629.13082,430.86198 630.46372,430.86198"
       id="path2550" />
    <text
       xml:space="preserve"
       style="font-size:105.65752411px;font-style:normal;font-weight:normal;fill:#000000;fill-opacity:1;stroke:none;stroke-width:1px;stroke-linecap:butt;stroke-linejoin:miter;stroke-opacity:1;font-family:Bitstream Vera Sans"
       x="69.034439"
       y="432.96649"
       id="text2558"
       transform="scale(1.0017854,0.9982178)"><tspan
         sodipodi:role="line"
         id="tspan2560"
         x="69.034439"
         y="432.96649">???</tspan></text>
    <path
       style="fill:none;fill-rule:evenodd;stroke:#000000;stroke-width:1px;stroke-linecap:butt;stroke-linejoin:miter;stroke-opacity:1"
       d="M 846.39421,612.13696 C 849.06002,611.24836 851.72583,610.35975 854.39164,609.47115 C 866.78842,605.33889 882.52483,606.7769 895.71167,604.13953 C 913.84934,600.512 937.03958,603.80434 951.69365,600.14082 C 960.42997,597.95674 971.68722,609.26276 971.68722,617.46858 C 971.68722,624.38074 976.64587,637.30318 978.35174,644.12666 C 980.88612,654.26419 968.58393,657.4557 961.02398,657.4557 C 948.00805,657.4557 928.88205,660.82602 915.70524,664.12023 C 913.98109,664.55126 912.15082,664.12023 910.37362,664.12023 C 890.92735,664.12023 872.75253,666.78603 853.05874,666.78603 C 832.42782,666.78603 811.88381,669.45184 791.74514,669.45184 C 770.73673,669.45184 751.22688,674.78346 730.43154,674.78346 C 713.63646,674.78346 697.46504,678.78217 681.11408,678.78217 C 677.9724,678.78217 674.89386,677.89357 671.78375,677.44927 C 662.09756,676.06553 651.56293,675.27117 642.45986,673.45056 C 638.01279,672.56114 630.34082,667.53662 625.1321,665.45313 C 617.77392,662.50985 616.27945,648.70317 614.46887,641.46085 C 612.25479,632.60452 614.36811,619.40605 615.80177,610.80406 C 617.14416,602.74973 615.95406,590.08672 614.46887,584.14597 C 612.14221,574.83931 615.46965,564.15681 613.13597,554.82208 C 611.51095,548.322 617.11204,534.87379 619.80049,529.49689 C 625.24357,518.61072 631.79663,516.71842 631.79663,504.17171 C 631.79663,494.40156 630.38188,489.34609 626.46501,481.51234 C 623.14927,474.88087 622.95133,469.15337 619.80049,462.85168 C 617.12372,457.49815 603.33488,458.85297 595.80821,458.85297 C 584.26535,458.85297 589.42273,454.25756 581.14626,452.18845 C 580.28419,451.97293 579.36906,452.18845 578.48045,452.18845"
       id="path2562" />
    <path
       style="fill:none;fill-rule:evenodd;stroke:#000000;stroke-width:1px;stroke-linecap:butt;stroke-linejoin:miter;stroke-opacity:1"
       d="M 595.80821,444.19102 C 591.22299,443.04472 579.74054,445.52393 571.81593,445.52393 C 567.56965,445.52393 571.81593,455.89416 571.81593,461.51878 C 571.81593,462.61542 574.48174,464.91488 574.48174,468.1833"
       id="path2564" />
    <path
       style="fill:none;fill-rule:evenodd;stroke:#000000;stroke-width:1px;stroke-linecap:butt;stroke-linejoin:miter;stroke-opacity:1"
       d="M 470.51521,470.84911 C 470.51521,479.01749 486.63988,475.27841 493.17458,480.17944 C 500.65762,485.79172 509.181,488.51876 515.83395,493.50848 C 518.10989,495.21543 520.27697,497.06289 522.49848,498.8401 C 529.59118,504.51426 527.83009,511.25422 527.83009,521.49947 C 527.83009,535.06411 508.72011,543.1305 502.50491,553.48917 C 498.02137,560.96173 479.61342,560.15369 471.84811,560.15369 C 447.90798,560.15369 423.79384,562.8195 398.53838,562.8195 C 381.97905,562.8195 364.71674,561.4866 347.88802,561.4866 C 324.88272,561.4866 296.32679,557.18426 273.24538,549.49046 C 258.98022,544.73541 238.86504,555.09725 227.92663,544.15884 C 223.33687,539.56908 221.31745,528.23777 217.2634,522.83237 C 210.15297,513.35181 206.41829,515.44036 203.93435,505.50462 C 202.3123,499.01639 201.74755,490.09287 199.93564,482.84524 C 198.44348,476.87661 197.06429,468.69402 195.93693,464.18458 C 195.02827,460.54996 195.23239,460.66191 194.60402,457.52006"
       id="path2566" />
    <path
       style="fill:none;fill-rule:evenodd;stroke:#000000;stroke-width:1px;stroke-linecap:butt;stroke-linejoin:miter;stroke-opacity:1"
       d="M 187.9395,473.51491 C 186.26663,466.82344 191.59825,460.21282 193.27112,453.52135 C 194.2769,449.49824 195.32545,456.54787 202.60145,460.18587 C 204.58086,461.17558 207.23842,467.2571 207.93307,468.1833"
       id="path2568" />
    <path
       style="fill:none;fill-rule:evenodd;stroke:#000000;stroke-width:1px;stroke-linecap:butt;stroke-linejoin:miter;stroke-opacity:1"
       d="M 618.46758,417.53294 C 621.7233,421.30567 629.47799,430.12268 635.79534,434.86069 C 642.44658,439.84913 639.6855,441.63377 635.79534,445.52393 C 630.83736,450.48191 628.87024,450.85554 619.80049,450.85554 C 618.91188,450.85554 618.02328,450.85554 617.13468,450.85554"
       id="path2570" />
  </g>
</svg>
