<?xml version="1.0" encoding="UTF-8" standalone="no"?>
<!-- Created with Inkscape (http://www.inkscape.org/) -->
<svg
   xmlns:dc="http://purl.org/dc/elements/1.1/"
   xmlns:cc="http://creativecommons.org/ns#"
   xmlns:rdf="http://www.w3.org/1999/02/22-rdf-syntax-ns#"
   xmlns:svg="http://www.w3.org/2000/svg"
   xmlns="http://www.w3.org/2000/svg"
   xmlns:xlink="http://www.w3.org/1999/xlink"
   xmlns:sodipodi="http://sodipodi.sourceforge.net/DTD/sodipodi-0.dtd"
   xmlns:inkscape="http://www.inkscape.org/namespaces/inkscape"
   width="744.09448819"
   height="1052.3622047"
   id="svg2477"
   sodipodi:version="0.32"
   inkscape:version="0.46"
   sodipodi:docname="logo.svg"
   inkscape:output_extension="org.inkscape.output.svg.inkscape">
  <defs
     id="defs2479">
    <linearGradient
       id="linearGradient7973">
      <stop
         id="stop7975"
         offset="0.00000000"
         style="stop-color:#71bc60;stop-opacity:1.0000000;" />
      <stop
         id="stop7977"
         offset="1.0000000"
         style="stop-color:#77ce64;stop-opacity:0.42352942;" />
    </linearGradient>
    <linearGradient
       inkscape:collect="always"
       xlink:href="#linearGradient7973"
       id="linearGradient7979"
       gradientUnits="userSpaceOnUse"
       x1="209.93025"
       y1="609.15863"
       x2="272.07062"
       y2="554.45270"
       gradientTransform="translate(88.321087,-28.828658)" />
    <linearGradient
       id="linearGradient2115">
      <stop
         style="stop-color:#d2f1cb;stop-opacity:1.0000000;"
         offset="0.00000000"
         id="stop2117" />
      <stop
         style="stop-color:#cdf9c3;stop-opacity:0.42268041;"
         offset="1.0000000"
         id="stop2119" />
    </linearGradient>
    <linearGradient
       inkscape:collect="always"
       xlink:href="#linearGradient2115"
       id="linearGradient2121"
       x1="272.79681"
       y1="476.64795"
       x2="254.12024"
       y2="535.94427"
       gradientUnits="userSpaceOnUse"
       gradientTransform="translate(88.321087,-28.828658)" />
    <linearGradient
       id="linearGradient8707">
      <stop
         style="stop-color:#8de17a;stop-opacity:1.0000000;"
         offset="0.00000000"
         id="stop8709" />
      <stop
         style="stop-color:#a3f590;stop-opacity:1.0000000;"
         offset="1.0000000"
         id="stop8711" />
    </linearGradient>
    <linearGradient
       inkscape:collect="always"
       xlink:href="#linearGradient8707"
       id="linearGradient8713"
       x1="202.42282"
       y1="630.79425"
       x2="201.15987"
       y2="501.72241"
       gradientUnits="userSpaceOnUse"
       gradientTransform="translate(88.321087,-28.828658)" />
    <linearGradient
       id="linearGradient6509">
      <stop
         style="stop-color:#7a73de;stop-opacity:1.0000000;"
         offset="0.00000000"
         id="stop6511" />
      <stop
         id="stop6517"
         offset="0.50000000"
         style="stop-color:#a2c8e9;stop-opacity:0.98039216;" />
      <stop
         style="stop-color:#7a73de;stop-opacity:1.0000000;"
         offset="1.0000000"
         id="stop6513" />
    </linearGradient>
    <linearGradient
       inkscape:collect="always"
       xlink:href="#linearGradient6509"
       id="linearGradient6515"
       x1="456.66621"
       y1="428.55343"
       x2="579.09352"
       y2="428.55343"
       gradientUnits="userSpaceOnUse"
       gradientTransform="matrix(-0.7920095,-0.2889324,-0.2868492,0.7862991,1020.0656,185.45615)" />
    <linearGradient
       id="linearGradient5773">
      <stop
         style="stop-color:#000000;stop-opacity:0.00000000;"
         offset="0.00000000"
         id="stop5775" />
      <stop
         id="stop5781"
         offset="0.50000000"
         style="stop-color:#616161;stop-opacity:1.0000000;" />
      <stop
         style="stop-color:#000000;stop-opacity:0;"
         offset="1"
         id="stop5777" />
    </linearGradient>
    <linearGradient
       inkscape:collect="always"
       xlink:href="#linearGradient5773"
       id="linearGradient5779"
       x1="80.912460"
       y1="670.96942"
       x2="301.00812"
       y2="670.96942"
       gradientUnits="userSpaceOnUse"
       gradientTransform="translate(88.321087,-28.828658)" />
    <inkscape:perspective
       sodipodi:type="inkscape:persp3d"
       inkscape:vp_x="0 : 526.18109 : 1"
       inkscape:vp_y="0 : 1000 : 0"
       inkscape:vp_z="744.09448 : 526.18109 : 1"
       inkscape:persp3d-origin="372.04724 : 350.78739 : 1"
       id="perspective2485" />
  </defs>
  <sodipodi:namedview
     id="base"
     pagecolor="#ffffff"
     bordercolor="#ffffff"
     borderopacity="0.0"
     inkscape:pageopacity="0.0"
     inkscape:pageshadow="0"
     inkscape:zoom="1.2300499"
     inkscape:cx="350"
     inkscape:cy="546.18156"
     inkscape:document-units="px"
     inkscape:current-layer="layer1"
     showgrid="false"
     inkscape:window-width="1022"
     inkscape:window-height="577"
     inkscape:window-x="1"
     inkscape:window-y="22" />
  <metadata
     id="metadata2482">
    <rdf:RDF>
      <cc:Work
         rdf:about="">
        <dc:format>image/svg+xml</dc:format>
        <dc:type
           rdf:resource="http://purl.org/dc/dcmitype/StillImage" />
      </cc:Work>
    </rdf:RDF>
  </metadata>
  <g
     inkscape:label="Layer 1"
     inkscape:groupmode="layer"
     id="layer1">
    <path
       style="opacity:0.16666667;fill:url(#linearGradient5779);fill-opacity:1;fill-rule:evenodd;stroke:none;stroke-width:1px;stroke-linecap:butt;stroke-linejoin:miter;stroke-opacity:1"
       d="M 155.46547,638.10731 C 162.44151,652.19719 175.55568,653.91792 191.21769,650.6082 C 200.04109,648.74362 228.7139,646.82736 248.77002,654.6754 C 268.82613,662.52345 293.20782,653.32757 321.98399,651.58356 C 350.76015,649.83955 359.51465,658.16342 378.69876,648.57137 C 397.88287,638.97931 442.35513,636.3633 417.93899,627.64325 C 393.52285,618.9232 308.06636,620.66721 275.80217,625.02723 C 243.53799,629.38726 172.03357,608.45914 159.8255,613.69117 C 146.87688,619.24058 152.84946,625.89924 155.46547,638.10731 z"
       id="path2123"
       sodipodi:nodetypes="csssssszc" />
    <path
       style="fill:#8ed97d;fill-opacity:1;fill-rule:evenodd;stroke:#3e7e42;stroke-width:2.98300004;stroke-linecap:butt;stroke-linejoin:miter;stroke-miterlimit:4;stroke-dasharray:none;stroke-opacity:1"
       d="M 231.08875,521.29799 C 224.47611,545.43765 219.28005,601.74467 216.01858,624.06113 C 215.22025,623.7971 214.3564,623.63405 213.46774,623.67329 C 209.39139,623.8533 206.25147,627.43058 206.43771,631.64748 C 206.62394,635.86436 210.06561,639.1197 214.14195,638.93966 C 216.96128,638.81513 219.25466,637.02565 220.39256,634.56587 C 221.61171,637.21464 224.31116,639.02233 227.40249,638.8858 C 231.47881,638.70576 234.65478,635.23635 234.47476,631.16 C 234.29473,627.08364 230.82667,623.93891 226.75033,624.11894 C 226.73961,624.11942 226.72981,624.1198 226.71911,624.12032 C 227.22625,620.48466 237.31653,553.41652 238.53351,546.67858 C 239.78866,539.72934 239.05396,492.22078 231.08875,521.29799 z"
       id="path7191"
       sodipodi:nodetypes="ccssscssscss" />
    <path
       style="opacity:1;fill:url(#linearGradient6515);fill-opacity:1;fill-rule:nonzero;stroke:none;stroke-width:3;stroke-linecap:round;stroke-linejoin:round;marker:none;marker-start:none;marker-mid:none;marker-end:none;stroke-miterlimit:4;stroke-dasharray:none;stroke-dashoffset:0;stroke-opacity:1;visibility:visible;display:inline;overflow:visible"
       d="M 530.76284,403.33393 C 514.37448,402.465 503.30716,387.9568 492.88569,390.17325 C 482.46422,392.3897 472.28658,397.28734 459.38244,391.20406 C 446.61936,385.18727 432.06222,372.72219 432.06222,372.72219 C 432.06222,372.72219 451.22257,371.67059 461.31608,366.20624 C 471.40959,360.7419 477.84877,353.62891 492.02209,353.74929 C 511.26974,353.91279 525.04183,362.56331 533.55029,361.16845 C 539.64474,372.10606 530.76284,403.33393 530.76284,403.33393 z"
       id="path3572"
       sodipodi:nodetypes="csscsscc" />
    <path
       style="fill:none;fill-opacity:0.75;fill-rule:evenodd;stroke:#ffffff;stroke-width:3.71821499;stroke-linecap:round;stroke-linejoin:round;stroke-miterlimit:4;stroke-dasharray:none;stroke-opacity:1"
       d="M 464.27576,367.5174 L 458.87826,387.17389 L 471.18466,387.2357"
       id="path3586"
       sodipodi:nodetypes="ccc" />
    <path
       style="fill:none;fill-opacity:0.75;fill-rule:evenodd;stroke:#ffffff;stroke-width:3.49128127;stroke-linecap:round;stroke-linejoin:round;stroke-miterlimit:4;stroke-dasharray:none;stroke-opacity:1"
       d="M 480.77694,361.36 L 479.935,369.63094 L 479.20494,375.28555 L 477.28414,385.7161"
       id="path3588"
       sodipodi:nodetypes="cccc" />
    <path
       style="fill:none;fill-opacity:0.75;fill-rule:evenodd;stroke:#ffffff;stroke-width:4.16078234;stroke-linecap:round;stroke-linejoin:round;stroke-miterlimit:4;stroke-dasharray:none;stroke-opacity:1"
       d="M 504.48698,364.33431 C 500.76851,360.68213 487.97866,355.99624 487.83786,364.87587 C 487.69705,373.75551 507.03196,369.16168 503.50199,380.25369 C 500.62568,389.29177 486.4774,379.41456 486.4774,379.41456"
       id="path3590"
       sodipodi:nodetypes="cssc" />
    <path
       style="fill:none;fill-opacity:0.75;fill-rule:evenodd;stroke:#ffffff;stroke-width:4.64187098;stroke-linecap:round;stroke-linejoin:round;stroke-miterlimit:4;stroke-dasharray:none;stroke-opacity:1"
       d="M 509.17172,390.59284 L 513.16157,363.21301 C 513.16157,363.21301 526.63889,372.41037 524.3572,379.00009 C 521.25627,387.95572 511.67461,376.1385 511.67461,376.1385"
       id="path3592"
       sodipodi:nodetypes="ccsc" />
    <path
       style="fill:url(#linearGradient8713);fill-opacity:1;fill-rule:evenodd;stroke:#3e7e42;stroke-width:2.98300004;stroke-linecap:butt;stroke-linejoin:miter;stroke-miterlimit:4;stroke-dasharray:none;stroke-opacity:1"
       d="M 358.84008,444.80586 C 274.35292,444.50018 205.6552,479.79468 196.41484,508.49215 C 188.74359,532.31655 178.16752,599.90529 173.92462,622.05612 C 173.13872,621.75713 172.2829,621.55612 171.39337,621.55612 C 167.31306,621.5561 164.01837,624.99136 164.01837,629.21237 C 164.01837,633.43336 167.31306,636.83738 171.39337,636.83737 C 174.21546,636.83735 176.58555,635.1508 177.83087,632.74362 C 178.93197,635.44359 181.54904,637.36863 184.64337,637.36862 C 188.72368,637.3686 192.04962,634.0427 192.04962,629.96237 C 192.04962,625.88204 188.72368,622.58736 184.64337,622.58737 C 184.63265,622.58737 184.62283,622.58732 184.61212,622.58737 C 185.27917,618.97762 195.37052,561.99208 199.93778,552.26021 C 202.93794,545.86752 327.16273,540.02945 329.07109,545.8984 C 331.8276,554.37581 324.59923,608.28006 322.95587,629.84147 C 322.56737,629.78906 322.20469,629.67187 321.79962,629.68522 C 317.72152,629.8196 314.53562,633.37275 314.67462,637.59147 C 314.81362,641.8102 318.22153,645.10084 322.29962,644.96647 C 325.12017,644.87351 327.4155,643.10085 328.58087,640.65397 C 329.77029,643.31622 332.45697,645.16213 335.54962,645.06022 C 339.62772,644.92586 342.84024,641.48209 342.70587,637.40397 C 342.57151,633.32587 339.15898,630.14459 335.08087,630.27897 C 334.73109,630.2905 334.41295,630.40701 334.08087,630.46647 C 335.24542,613.91801 343.41982,547.71565 347.74501,542.81443 C 350.70055,539.46526 375.42939,537.95399 376.20967,543.31064 C 376.89441,548.01161 388.59885,619.06413 387.28927,626.45136 C 379.35249,626.19182 373.61549,635.6488 378.06458,639.42152 C 382.23591,642.9587 389.3041,644.14935 391.66638,636.72939 C 396.36477,644.72778 403.70604,641.17132 406.20262,637.30783 C 408.34991,633.98486 406.05855,627.18627 396.28927,626.07636 C 400.13308,609.39402 391.43728,535.13817 392.78984,533.1484 C 394.35039,530.85268 402.16583,517.83124 402.94609,508.6484 C 403.05389,507.3797 403.04094,505.09509 402.88359,502.3359 C 427.28897,507.01875 443.6776,510.16027 454.46149,504.2362 C 469.72316,495.85228 472.59811,489.64748 488.13359,479.42965 C 507.48017,466.70522 521.99787,474.33202 531.26819,472.43192 C 540.53852,470.53187 536.24917,458.13949 541.84507,448.67414 C 547.92087,438.39705 520.36352,431.15886 514.04095,439.26009 C 506.17269,449.34184 507.58311,456.37341 500.49418,458.83541 C 491.19852,462.0638 471.01249,474.39337 464.40811,479.05391 C 453.22012,486.94898 443.1825,493.55176 423.16484,485.92965 C 408.36102,478.54517 411.55007,462.01787 392.13359,453.80465 C 382.71093,448.96103 373.59235,445.1393 366.25859,443.86715 C 365.87663,443.78066 365.49205,443.7245 365.10234,443.6484 C 364.64821,443.58537 364.1965,443.53232 363.75859,443.49215 C 362.04399,443.21469 360.7038,444.87483 358.84008,444.80586 z"
       id="path1306"
       sodipodi:nodetypes="cscssscssscsscssscssscssczczcsscssssssscccscc" />
    <path
       style="fill:#e0773e;fill-opacity:1;stroke:#000000;stroke-width:2.72266912;stroke-miterlimit:4;stroke-opacity:1"
       d="M 533.53224,359.12208 C 535.79398,358.99517 537.69136,360.50647 537.39758,364.68885 L 528.73434,479.17242 C 528.44058,483.35481 526.95325,484.67954 524.6915,484.80644 C 522.42976,484.93335 520.27541,483.81295 520.56918,479.63057 L 529.23243,365.147 C 529.52619,360.96461 531.27049,359.24899 533.53224,359.12208 z"
       id="rect2844"
       sodipodi:nodetypes="cccsccc" />
    <path
       style="fill:#ffffff;fill-opacity:1;fill-rule:evenodd;stroke:none;stroke-width:1px;stroke-linecap:butt;stroke-linejoin:miter;stroke-opacity:1"
       d="M 334.46419,480.28244 C 329.34228,498.0121 343.32902,503.528 343.32902,503.528 C 343.32902,503.528 348.84492,507.07393 353.17883,508.25591 C 357.51275,509.43789 374.99617,514.46129 376.42439,495.05716 C 369.77577,493.1857 334.46419,480.28244 334.46419,480.28244 z"
       id="path9395"
       sodipodi:nodetypes="ccscc" />
    <path
       style="fill:none;fill-opacity:0.75;fill-rule:evenodd;stroke:#000000;stroke-width:1px;stroke-linecap:butt;stroke-linejoin:miter;stroke-opacity:1"
       d="M 370.31751,493.0872 L 366.57458,509.63488"
       id="path10849" />
    <path
       style="fill:none;fill-opacity:0.75;fill-rule:evenodd;stroke:#000000;stroke-width:1px;stroke-linecap:butt;stroke-linejoin:miter;stroke-opacity:1"
       d="M 364.21063,491.51123 L 360.0737,509.63488"
       id="path10851" />
    <path
       style="fill:none;fill-opacity:0.75;fill-rule:evenodd;stroke:#000000;stroke-width:1px;stroke-linecap:butt;stroke-linejoin:miter;stroke-opacity:1"
       d="M 358.49773,489.14727 L 354.36081,507.86192"
       id="path10853" />
    <path
       style="fill:none;fill-opacity:0.75;fill-rule:evenodd;stroke:#000000;stroke-width:1px;stroke-linecap:butt;stroke-linejoin:miter;stroke-opacity:1"
       d="M 352.98184,487.17731 L 348.84492,505.89195 L 352.98184,487.17731 z"
       id="path10855" />
    <path
       style="fill:none;fill-opacity:0.75;fill-rule:evenodd;stroke:#000000;stroke-width:1px;stroke-linecap:butt;stroke-linejoin:miter;stroke-opacity:1"
       d="M 347.26894,485.20735 L 343.32902,503.528"
       id="path10857" />
    <path
       style="fill:none;fill-opacity:0.75;fill-rule:evenodd;stroke:#000000;stroke-width:1px;stroke-linecap:butt;stroke-linejoin:miter;stroke-opacity:1"
       d="M 342.34404,483.43438 L 338.60111,499.39108"
       id="path10859" />
    <path
       style="fill:none;fill-opacity:0.75;fill-rule:evenodd;stroke:#000000;stroke-width:1px;stroke-linecap:butt;stroke-linejoin:miter;stroke-opacity:1"
       d="M 337.81312,481.26742 L 334.85818,493.48119"
       id="path10861" />
    <path
       style="fill:none;fill-opacity:0.75;fill-rule:evenodd;stroke:#000000;stroke-width:1px;stroke-linecap:butt;stroke-linejoin:miter;stroke-opacity:1"
       d="M 374.84843,502.54302 C 362.24066,502.14903 341.75305,495.25416 333.28221,488.35929"
       id="path10863"
       sodipodi:nodetypes="cs" />
    <path
       style="opacity:1;fill:none;fill-opacity:1;fill-rule:evenodd;stroke:#3e7e42;stroke-width:2.98300004;stroke-linecap:butt;stroke-linejoin:miter;marker:none;marker-start:none;marker-mid:none;marker-end:none;stroke-miterlimit:4;stroke-dasharray:none;stroke-dashoffset:0;stroke-opacity:1;visibility:visible;display:inline;overflow:visible"
       d="M 403.06027,502.38172 C 375.61492,495.43421 334.82969,480.06004 334.82969,480.06004 C 334.82969,480.06004 324.97305,502.28527 357.64628,509.31954 C 375.89557,513.24844 376.44259,495.42878 376.44259,495.42878"
       id="path1334"
       sodipodi:nodetypes="ccsc" />
    <path
       style="opacity:1;fill:#9af286;fill-opacity:1;fill-rule:evenodd;stroke:#3e7e42;stroke-width:2.98300004;stroke-linecap:round;stroke-linejoin:miter;marker:none;marker-start:none;marker-mid:none;marker-end:none;stroke-miterlimit:4;stroke-dasharray:none;stroke-dashoffset:0;stroke-opacity:1;visibility:visible;display:inline;overflow:visible"
       d="M 536.37334,459.37577 C 545.86588,460.6025 548.68025,449.92516 545.40526,444.85899 C 542.421,440.24256 532.16845,435.22036 529.56002,441.58499 C 527.60427,446.35707 532.77283,449.06759 537.08627,448.62282"
       id="path1319"
       sodipodi:nodetypes="csss" />
    <path
       style="opacity:1;fill:#9af286;fill-opacity:1;fill-rule:evenodd;stroke:#3e7e42;stroke-width:2.98300004;stroke-linecap:round;stroke-linejoin:miter;marker:none;marker-start:none;marker-mid:none;marker-end:none;stroke-miterlimit:4;stroke-dasharray:none;stroke-dashoffset:0;stroke-opacity:1;visibility:visible;display:inline;overflow:visible"
       d="M 532.75178,465.002 C 528.87897,462.9744 523.48312,463.40248 525.90652,456.73278 C 527.69782,451.80273 533.59738,455.58585 541.50258,460.99359 C 549.40779,466.40132 541.20922,473.09375 531.60813,472.26444"
       id="path1317"
       sodipodi:nodetypes="csss" />
    <path
       style="opacity:1;fill:#9af286;fill-opacity:1;fill-rule:evenodd;stroke:#3e7e42;stroke-width:2.98300004;stroke-linecap:round;stroke-linejoin:miter;marker:none;marker-start:none;marker-mid:none;marker-end:none;stroke-miterlimit:4;stroke-dasharray:none;stroke-dashoffset:0;stroke-opacity:1;visibility:visible;display:inline;overflow:visible"
       d="M 507.8976,449.95782 C 511.14126,444.19216 512.09323,438.37196 515.60855,437.16479 C 519.00261,435.99928 527.12627,430.06078 530.04633,431.63003 C 532.96634,433.19929 535.29735,438.80502 525.91319,443.31679 C 521.43815,445.46833 521.24898,451.14297 517.6128,453.39311"
       id="path1315"
       sodipodi:nodetypes="csssz" />
    <path
       style="fill:#54de61;fill-opacity:1;fill-rule:evenodd;stroke:none;stroke-width:0.20767665px;stroke-linecap:butt;stroke-linejoin:miter;stroke-opacity:1"
       d="M 292.99697,477.56118 C 292.99697,477.56118 312.7093,474.35039 311.04631,463.09765 C 309.64854,453.63951 295.45144,455.74832 288.31372,457.54562 C 288.76628,463.2811 289.53143,466.43432 282.97419,469.1924 C 289.56884,469.05683 291.07978,471.01867 292.99697,477.56118 z"
       id="path15231"
       sodipodi:nodetypes="csccc" />
    <path
       sodipodi:nodetypes="csccc"
       id="path15959"
       d="M 295.16536,499.97305 C 295.16536,499.97305 315.13525,499.67509 315.13321,488.30013 C 315.13151,478.73926 300.77865,478.7524 293.45499,479.48818 C 293.0652,485.22827 293.36172,488.45942 286.47202,490.23044 C 293.01578,491.05928 294.22406,493.22072 295.16536,499.97305 z"
       style="fill:#54de61;fill-opacity:1;fill-rule:evenodd;stroke:none;stroke-width:0.20767665px;stroke-linecap:butt;stroke-linejoin:miter;stroke-opacity:1" />
    <path
       style="fill:#54de61;fill-opacity:1;fill-rule:evenodd;stroke:none;stroke-width:0.20767665px;stroke-linecap:butt;stroke-linejoin:miter;stroke-opacity:1"
       d="M 295.32568,523.24611 C 295.32568,523.24611 315.25851,524.49799 316.13878,513.15715 C 316.87867,503.62495 302.56803,502.52477 295.20936,502.69028 C 294.37552,508.38284 294.42052,511.62726 287.41421,512.85855 C 293.87397,514.19246 294.91096,516.44111 295.32568,523.24611 z"
       id="path15961"
       sodipodi:nodetypes="csccc" />
    <path
       style="fill:#54de61;fill-opacity:1;fill-rule:evenodd;stroke:none;stroke-width:0.20767665px;stroke-linecap:butt;stroke-linejoin:miter;stroke-opacity:1"
       d="M 294.66484,525.70259 C 293.4601,531.32833 293.29924,534.58891 286.22734,535.35884 C 291.6254,536.84787 293.02407,538.90031 293.32109,543.60884 C 299.79096,543.51211 305.69455,543.51901 310.82109,543.64009 C 312.90604,542.29628 314.44711,540.3298 314.85234,537.51509 C 316.21475,528.05181 302.01857,526.01923 294.66484,525.70259 z"
       id="path15963" />
    <path
       style="fill:#54de61;fill-opacity:1;fill-rule:evenodd;stroke:none;stroke-width:0.20767665px;stroke-linecap:butt;stroke-linejoin:miter;stroke-opacity:1"
       d="M 284.35234,454.01509 C 275.84556,456.21417 267.74708,458.73721 260.19609,461.51509 C 264.68834,462.46151 265.88855,464.62683 266.69609,470.14009 C 266.69609,470.14008 286.44674,469.56991 286.44609,458.85884 C 286.44597,456.76856 285.61714,455.21986 284.35234,454.01509 z"
       id="path15965" />
    <path
       sodipodi:nodetypes="csccc"
       id="path15967"
       d="M 270.87919,490.76623 C 270.87919,490.76623 290.61502,490.26008 290.6432,479.54905 C 290.66688,470.54619 276.48276,470.72068 269.24326,471.49625 C 268.84284,476.90572 269.12731,479.94494 262.31392,481.69044 C 268.77854,482.39697 269.96687,484.41863 270.87919,490.76623 z"
       style="fill:#54de61;fill-opacity:1;fill-rule:evenodd;stroke:none;stroke-width:0.20767665px;stroke-linecap:butt;stroke-linejoin:miter;stroke-opacity:1" />
    <path
       style="fill:#54de61;fill-opacity:1;fill-rule:evenodd;stroke:none;stroke-width:0.20767665px;stroke-linecap:butt;stroke-linejoin:miter;stroke-opacity:1"
       d="M 272.72885,512.96215 C 272.72885,512.96215 292.46468,512.456 292.49286,501.74497 C 292.51654,492.74211 278.33242,492.9166 271.09292,493.69217 C 270.6925,499.10164 270.97697,502.14086 264.16358,503.88636 C 270.6282,504.59289 271.81653,506.61455 272.72885,512.96215 z"
       id="path15971"
       sodipodi:nodetypes="csccc" />
    <path
       sodipodi:nodetypes="csccc"
       id="path15973"
       d="M 272.8662,534.04764 C 272.8662,534.04764 292.57677,535.16681 293.48602,524.4944 C 294.25026,515.52401 280.09986,514.53102 272.8211,514.70839 C 271.97701,520.06659 272.01049,523.11891 265.0766,524.29797 C 271.46118,525.53393 272.47917,527.6465 272.8662,534.04764 z"
       style="fill:#54de61;fill-opacity:1;fill-rule:evenodd;stroke:none;stroke-width:0.20767665px;stroke-linecap:butt;stroke-linejoin:miter;stroke-opacity:1" />
    <path
       style="fill:#54de61;fill-opacity:1;fill-rule:evenodd;stroke:none;stroke-width:0.20767665px;stroke-linecap:butt;stroke-linejoin:miter;stroke-opacity:1"
       d="M 271.28984,535.98384 C 270.64532,540.07517 270.43477,542.79496 267.32109,544.39009 C 275.77387,544.00415 283.9243,543.7443 291.66484,543.60884 C 290.07997,536.70027 277.91421,535.82242 271.28984,535.98384 z"
       id="path15975" />
    <path
       sodipodi:nodetypes="csccc"
       id="path15977"
       d="M 248.30546,484.22694 C 248.30546,484.22694 267.87007,481.58403 266.7368,470.93308 C 265.78427,461.98072 252.39742,465.18076 245.28469,466.73666 C 245.47311,472.15767 245.39067,473.65938 238.80668,476.13328 C 245.3098,476.13476 246.71031,478.01567 248.30546,484.22694 z"
       style="fill:#54de61;fill-opacity:1;fill-rule:evenodd;stroke:none;stroke-width:0.20767665px;stroke-linecap:butt;stroke-linejoin:miter;stroke-opacity:1" />
    <path
       style="fill:#54de61;fill-opacity:1;fill-rule:evenodd;stroke:none;stroke-width:0.20767665px;stroke-linecap:butt;stroke-linejoin:miter;stroke-opacity:1"
       d="M 250.4634,504.88147 C 250.4634,504.88147 270.02801,502.23856 268.89474,491.58761 C 267.94221,482.63525 253.86061,484.34654 246.74788,485.90244 C 246.9363,491.32345 247.54861,494.31391 240.96462,496.78781 C 247.46774,496.78929 248.86825,498.6702 250.4634,504.88147 z"
       id="path15979"
       sodipodi:nodetypes="csccc" />
    <path
       sodipodi:nodetypes="csccc"
       id="path15981"
       d="M 250.05902,524.52598 C 250.05902,524.52598 269.80131,524.5587 270.12183,513.85242 C 270.39124,504.85356 256.20763,504.64084 248.94967,505.21852 C 248.40174,510.61506 248.60316,513.66091 241.74466,515.21978 C 248.18759,516.1025 249.32029,518.15585 250.05902,524.52598 z"
       style="fill:#54de61;fill-opacity:1;fill-rule:evenodd;stroke:none;stroke-width:0.20767665px;stroke-linecap:butt;stroke-linejoin:miter;stroke-opacity:1" />
    <path
       style="fill:#54de61;fill-opacity:1;fill-rule:evenodd;stroke:none;stroke-width:0.20767665px;stroke-linecap:butt;stroke-linejoin:miter;stroke-opacity:1"
       d="M 249.17186,544.80723 C 249.17186,544.80723 268.87602,546.03404 269.84355,535.36676 C 270.65678,526.40067 256.51201,525.33042 249.23239,525.46802 C 248.35905,530.82153 248.37586,533.87399 241.43563,535.01515 C 247.81337,536.28598 248.81979,538.40409 249.17186,544.80723 z"
       id="path15983"
       sodipodi:nodetypes="csccc" />
    <path
       sodipodi:nodetypes="csccc"
       id="path15987"
       d="M 229.35742,498.37006 C 229.35742,498.37006 247.58261,494.30574 245.63444,484.29382 C 243.99696,475.87858 230.86362,478.62277 224.28699,480.66475 C 224.91244,485.79142 225.73669,488.57905 219.73434,491.44964 C 225.86494,490.93334 227.34058,492.60584 229.35742,498.37006 z"
       style="fill:#54de61;fill-opacity:1;fill-rule:evenodd;stroke:none;stroke-width:0.20767665px;stroke-linecap:butt;stroke-linejoin:miter;stroke-opacity:1" />
    <path
       style="fill:#54de61;fill-opacity:1;fill-rule:evenodd;stroke:none;stroke-width:0.20767665px;stroke-linecap:butt;stroke-linejoin:miter;stroke-opacity:1"
       d="M 229.64004,517.41256 C 229.64004,517.41256 248.17479,515.14553 247.21259,504.99131 C 246.40384,496.45647 233.06544,497.90639 226.32098,499.29707 C 226.44333,504.4603 226.99171,507.31505 220.73796,509.58641 C 226.88968,509.67062 228.19513,511.47909 229.64004,517.41256 z"
       id="path15989"
       sodipodi:nodetypes="csccc" />
    <path
       sodipodi:nodetypes="csccc"
       id="path15991"
       d="M 228.96357,535.8805 C 228.96357,535.8805 247.61319,534.94869 247.38177,524.75161 C 247.18725,516.18074 233.77921,516.67025 226.95237,517.57361 C 226.70408,522.73232 227.0463,525.61905 220.64574,527.43601 C 226.77558,527.96123 227.94796,529.85868 228.96357,535.8805 z"
       style="fill:#54de61;fill-opacity:1;fill-rule:evenodd;stroke:none;stroke-width:0.20767665px;stroke-linecap:butt;stroke-linejoin:miter;stroke-opacity:1" />
    <path
       style="fill:#54de61;fill-opacity:1;fill-rule:evenodd;stroke:none;stroke-width:0.20767665px;stroke-linecap:butt;stroke-linejoin:miter;stroke-opacity:1"
       d="M 228.13359,536.67134 C 227.39218,541.78253 227.46004,544.69472 220.91484,545.89009 C 222.83143,546.24167 224.1212,546.72685 225.16484,547.35884 C 231.99064,546.65991 239.58081,546.05916 247.75859,545.51509 C 248.07721,537.22648 234.94002,536.42891 228.13359,536.67134 z"
       id="path15995" />
    <path
       sodipodi:nodetypes="csccc"
       id="path15997"
       d="M 208.87868,510.46869 C 208.87868,510.46869 226.89419,507.75619 225.61745,498.28389 C 224.54429,490.32219 211.57352,492.10436 205.0368,493.62084 C 205.32789,498.44903 205.95806,501.10322 199.92958,503.42825 C 205.93679,503.31095 207.27109,504.96183 208.87868,510.46869 z"
       style="fill:#54de61;fill-opacity:1;fill-rule:evenodd;stroke:none;stroke-width:0.20767665px;stroke-linecap:butt;stroke-linejoin:miter;stroke-opacity:1" />
    <path
       style="fill:#54de61;fill-opacity:1;fill-rule:evenodd;stroke:none;stroke-width:0.20767665px;stroke-linecap:butt;stroke-linejoin:miter;stroke-opacity:1"
       d="M 208.32439,528.23301 C 208.32439,528.23301 226.5181,527.28173 226.16668,517.73024 C 225.87128,509.70197 212.78878,510.21691 206.13574,511.09184 C 205.95688,515.92548 206.32648,518.6283 200.10081,520.35729 C 206.09105,520.82355 207.25883,522.59613 208.32439,528.23301 z"
       id="path15999"
       sodipodi:nodetypes="csccc" />
    <path
       sodipodi:nodetypes="csccc"
       id="path16003"
       d="M 208.63267,546.72961 C 208.63267,546.72961 226.82638,545.77833 226.47496,536.22684 C 226.17956,528.19857 213.09706,528.71351 206.44402,529.58844 C 206.26516,534.42208 206.63476,537.1249 200.40909,538.85389 C 206.39933,539.32015 207.56711,541.09273 208.63267,546.72961 z"
       style="fill:#54de61;fill-opacity:1;fill-rule:evenodd;stroke:none;stroke-width:0.20767665px;stroke-linecap:butt;stroke-linejoin:miter;stroke-opacity:1" />
    <path
       id="path16013"
       d="M 284.35234,454.01509 C 275.84556,456.21417 267.74708,458.73721 260.19609,461.51509 C 264.68834,462.46151 265.88855,464.62683 266.69609,470.14009 C 266.69609,470.14008 286.44674,469.56991 286.44609,458.85884 C 286.44597,456.76856 285.61714,455.21986 284.35234,454.01509 z"
       style="fill:#54de61;fill-opacity:1;fill-rule:evenodd;stroke:none;stroke-width:0.20767665px;stroke-linecap:butt;stroke-linejoin:miter;stroke-opacity:1" />
    <path
       style="opacity:0.85;fill:url(#linearGradient2121);fill-opacity:1;fill-rule:evenodd;stroke:none;stroke-width:2.98300004;stroke-linecap:butt;stroke-linejoin:miter;marker:none;marker-start:none;marker-mid:none;marker-end:none;stroke-miterlimit:4;stroke-dasharray:none;stroke-dashoffset:0;stroke-opacity:1;visibility:visible;display:inline;overflow:visible"
       d="M 206.91377,495.09849 C 195.57771,514.2826 199.93773,513.41059 209.52979,510.79458 C 219.12184,508.17856 288.01024,493.35448 297.60229,495.97049 C 307.19435,498.58651 321.14643,495.09849 323.76244,484.63443 C 326.37846,474.17037 327.09544,468.71441 338.5693,473.16056 C 357.48136,480.48903 393.52284,487.25044 407.47492,489.86646 C 421.427,492.48247 437.12309,504.69054 459.79522,491.61047 C 482.46736,478.53039 500.87062,467.56195 509.49951,461.09029 C 511.24352,459.78229 516.95066,446.93487 518.82909,442.51863 C 519.7683,440.31052 527.71395,436.03819 527.27205,434.91468 C 526.83015,433.79118 522.25787,435.72704 517.55872,438.84048 C 512.70326,442.05748 509.59336,457.39111 503.48933,460.00713 C 497.38529,462.62314 478.10733,473.29836 470.25929,479.4024 C 462.41124,485.50643 441.48312,497.7145 427.53104,490.73846 C 413.57896,483.76242 408.34693,470.68235 397.01086,462.8343 C 385.6748,454.98626 336.84252,439.29016 278.41818,458.47428 C 219.99385,477.65839 217.37783,484.63443 206.91377,495.09849 z"
       id="path1387"
       sodipodi:nodetypes="csssssssszssssssc" />
    <path
       id="path16018"
       d="M 228.13359,536.67134 C 227.39218,541.78253 227.46004,544.69472 220.91484,545.89009 C 222.83143,546.24167 224.1212,546.72685 225.16484,547.35884 C 231.99064,546.65991 239.58081,546.05916 247.75859,545.51509 C 248.07721,537.22648 234.94002,536.42891 228.13359,536.67134 z"
       style="fill:#54de61;fill-opacity:1;fill-rule:evenodd;stroke:none;stroke-width:0.20767665px;stroke-linecap:butt;stroke-linejoin:miter;stroke-opacity:1" />
    <path
       id="path16023"
       d="M 271.28984,535.98384 C 270.64532,540.07517 270.43477,542.79496 267.32109,544.39009 C 275.77387,544.00415 283.9243,543.7443 291.66484,543.60884 C 290.07997,536.70027 277.91421,535.82242 271.28984,535.98384 z"
       style="fill:#54de61;fill-opacity:1;fill-rule:evenodd;stroke:none;stroke-width:0.20767665px;stroke-linecap:butt;stroke-linejoin:miter;stroke-opacity:1" />
    <path
       sodipodi:nodetypes="csccscssscssscss"
       id="path16026"
       d="M 366.25859,443.86715 C 365.87663,443.78066 365.49205,443.7245 365.10234,443.6484 C 364.64821,443.58537 364.1965,443.53232 363.75859,443.49215 C 362.04399,443.21469 360.7038,444.87483 358.84008,444.80586 C 274.35292,444.50018 205.6552,479.79468 196.41484,508.49215 C 188.74359,532.31655 178.16752,599.90529 173.92462,622.05612 C 173.13872,621.75713 172.2829,621.55612 171.39337,621.55612 C 167.31306,621.5561 164.01837,624.99136 164.01837,629.21237 C 164.01837,633.43336 167.31306,636.83738 171.39337,636.83737 C 174.21546,636.83735 176.58555,635.1508 177.83087,632.74362 C 178.93197,635.44359 181.54904,637.36863 184.64337,637.36862 C 188.72368,637.3686 192.04962,634.0427 192.04962,629.96237 C 192.04962,625.88204 188.72368,622.58736 184.64337,622.58737 C 184.63265,622.58737 184.62283,622.58732 184.61212,622.58737 C 185.27917,618.97762 195.37052,561.99208 199.93778,552.26021 C 202.93794,545.86752 327.16273,540.02945 329.07109,545.8984"
       style="fill:none;fill-opacity:1;fill-rule:evenodd;stroke:#3e7e42;stroke-width:2.98300004;stroke-linecap:butt;stroke-linejoin:miter;stroke-miterlimit:4;stroke-dasharray:none;stroke-opacity:1" />
    <path
       style="fill:#ffffff;fill-opacity:1;fill-rule:evenodd;stroke:#000000;stroke-width:1.43499994;stroke-linecap:butt;stroke-linejoin:miter;stroke-miterlimit:4;stroke-dasharray:none;stroke-opacity:1"
       d="M 352.69009,424.86182 C 342.44629,425.05881 336.5364,433.72664 341.26431,440.81851 C 345.99222,447.91038 364.11588,446.92539 366.47984,439.63653 C 368.84379,432.34767 358.79698,424.07383 352.69009,424.86182 z"
       id="path7197"
       sodipodi:nodetypes="cssc" />
    <path
       id="path7933"
       d="M 355.4074,436.66114 C 361.06045,435.52049 359.82576,431.98707 357.60522,429.21549 C 355.38469,426.4439 350.11256,428.07747 350.22245,431.3779 C 350.33233,434.67833 351.28912,436.22209 355.4074,436.66114 z"
       style="fill:#000000;fill-opacity:1;fill-rule:evenodd;stroke:none;stroke-width:1px;stroke-linecap:butt;stroke-linejoin:miter;stroke-opacity:1" />
    <path
       style="fill:#ffffff;fill-opacity:1;fill-rule:evenodd;stroke:#000000;stroke-width:1.43499994;stroke-linecap:butt;stroke-linejoin:miter;stroke-miterlimit:4;stroke-dasharray:none;stroke-opacity:1"
       d="M 385.39983,446.29242 C 387.57067,435.69206 381.78172,431.14905 372.3747,430.39189 C 362.96767,429.63471 351.3898,434.17773 355.7315,441.7494 C 360.0732,449.3211 378.88725,459.92145 385.39983,446.29242 z"
       id="path1323" />
    <path
       style="fill:#ffffff;fill-opacity:1;fill-rule:evenodd;stroke:#000000;stroke-width:1.43499994;stroke-linecap:butt;stroke-linejoin:miter;stroke-miterlimit:4;stroke-dasharray:none;stroke-opacity:1"
       d="M 330.71639,431.69712 C 321.93017,436.96746 321.11956,447.42695 328.75043,451.22401 C 336.3813,455.02106 351.60933,445.14461 350.03107,437.64629 C 348.4528,430.14797 335.62053,427.97362 330.71639,431.69712 z"
       id="path7199"
       sodipodi:nodetypes="cssc" />
    <path
       style="fill:#000000;fill-opacity:1;fill-rule:evenodd;stroke:none;stroke-width:1px;stroke-linecap:butt;stroke-linejoin:miter;stroke-opacity:1"
       d="M 332.0054,441.00715 C 333.60358,446.54825 337.02446,445.02933 339.60557,442.59001 C 342.1867,440.1507 340.12832,435.02946 336.84787,435.40833 C 333.56742,435.7872 332.10689,436.86678 332.0054,441.00715 z"
       id="path7935" />
    <path
       style="fill:#ffffff;fill-opacity:1;fill-rule:evenodd;stroke:#000000;stroke-width:1.43499994;stroke-linecap:butt;stroke-linejoin:miter;stroke-miterlimit:4;stroke-dasharray:none;stroke-opacity:1"
       d="M 360.00495,443.34412 C 353.85419,437.66534 341.1909,434.25809 337.57281,441.0726 C 333.95473,447.8871 336.12557,461.51616 349.15068,460.75898 C 362.1758,460.00181 366.15568,449.02289 360.00495,443.34412 z"
       id="path1321"
       sodipodi:nodetypes="czzz" />
    <path
       style="fill:#ffffff;fill-opacity:1;fill-rule:evenodd;stroke:#000000;stroke-width:1.43499994;stroke-linecap:butt;stroke-linejoin:miter;stroke-miterlimit:4;stroke-dasharray:none;stroke-opacity:1"
       d="M 366.28285,440.62153 C 358.6,441.21252 353.67509,450.07736 359.38798,454.01728 C 365.10087,457.95721 376.92065,457.95721 377.90563,450.47135 C 378.89061,442.98549 372.58673,440.42454 366.28285,440.62153 z"
       id="path7195" />
    <path
       style="fill:#000000;fill-opacity:1;fill-rule:evenodd;stroke:none;stroke-width:1px;stroke-linecap:butt;stroke-linejoin:miter;stroke-opacity:1"
       d="M 350.52314,442.78848 C 344.81025,442.0005 344.81025,445.74343 345.99223,449.09236 C 347.1742,452.4413 352.6901,452.6383 353.67508,449.48636 C 354.66006,446.33442 354.26607,444.56145 350.52314,442.78848 z"
       id="path7927" />
    <path
       id="path7929"
       d="M 371.72312,444.03475 C 367.30096,443.46902 367.30096,446.15629 368.2159,448.56067 C 369.13081,450.96506 373.40049,451.1065 374.16293,448.84354 C 374.92536,446.58059 374.6204,445.30767 371.72312,444.03475 z"
       style="fill:#000000;fill-opacity:1;fill-rule:evenodd;stroke:none;stroke-width:0.7454837px;stroke-linecap:butt;stroke-linejoin:miter;stroke-opacity:1" />
    <path
       style="fill:#000000;fill-opacity:1;fill-rule:evenodd;stroke:none;stroke-width:1px;stroke-linecap:butt;stroke-linejoin:miter;stroke-opacity:1"
       d="M 375.33858,434.1272 C 370.26689,436.87238 372.48164,439.88973 375.41611,441.89006 C 378.35057,443.89041 382.91376,440.78538 381.84275,437.66162 C 380.77173,434.53787 379.40502,433.34172 375.33858,434.1272 z"
       id="path7931" />
    <path
       style="opacity:0.52777782;fill:url(#linearGradient7979);fill-opacity:1;fill-rule:evenodd;stroke:none;stroke-width:2.98300004;stroke-linecap:butt;stroke-linejoin:miter;marker:none;marker-start:none;marker-mid:none;marker-end:none;stroke-miterlimit:4;stroke-dasharray:none;stroke-dashoffset:0;stroke-opacity:1;visibility:visible;display:inline;overflow:visible"
       d="M 387.49416,506.3915 C 396.04196,509.81063 391.76806,534.59925 378.94636,536.30881 C 366.12465,538.01837 279.79185,540.58271 264.40581,541.43749 C 249.01977,542.29227 207.99032,547.42095 207.99032,547.42095 C 207.99032,547.42095 202.00686,542.29227 201.15208,537.16359 C 200.2973,532.03491 257.56757,522.63233 278.08229,521.77755 C 298.59702,520.92277 336.57939,508.96955 342.1908,511.52019 C 360.99598,520.06799 382.36548,508.10106 387.49416,506.3915 z"
       id="path7245"
       sodipodi:nodetypes="csscsssc" />
    <path
       style="fill:#86d973;fill-opacity:1;fill-rule:evenodd;stroke:none;stroke-width:1px;stroke-linecap:butt;stroke-linejoin:miter;stroke-opacity:1"
       d="M 541.51635,449.71386 C 538.54205,449.82402 536.88966,449.38338 536.33886,451.25609 C 535.78806,453.1288 537.77093,456.65389 538.98268,456.98437 C 540.19444,457.31485 543.82969,454.89135 544.05001,453.23896 C 544.27033,451.58657 543.27889,450.37482 541.51635,449.71386 z"
       id="path8715" />
    <path
       style="fill:#86d973;fill-opacity:1;fill-rule:evenodd;stroke:none;stroke-width:1px;stroke-linecap:butt;stroke-linejoin:miter;stroke-opacity:1"
       d="M 540.08428,462.71265 C 537.88109,461.39074 533.47472,460.83995 532.81376,461.72122 C 532.15281,462.6025 535.6779,463.15329 534.90679,464.91584 C 534.13568,466.67839 532.59345,466.45807 532.04265,467.22918 C 531.49185,468.0003 530.50042,469.32221 531.60201,470.09333 C 532.7036,470.86444 540.52491,469.43237 541.18587,468.33078 C 541.84682,467.22918 543.93985,464.58536 540.08428,462.71265 z"
       id="path8717" />
    <path
       style="fill:#ffffff;fill-rule:evenodd;stroke:#000000;stroke-width:1.91199994;stroke-linecap:butt;stroke-linejoin:miter;stroke-miterlimit:4;stroke-dasharray:none;stroke-opacity:1"
       d="M 321.00555,434.45496 C 320.05872,421.10033 296.91735,419.97818 293.76806,432.25361 C 293.58159,436.85475 291.20118,443.28997 289.34315,434.89331 C 283.56207,424.096 262.05648,426.90737 261.38111,439.82768 C 262.75726,444.77979 261.98865,451.22909 257.32852,444.7686 C 249.87146,438.88493 241.11461,447.93821 240.52127,451.88633 C 233.50818,441.60425 217.46612,449.33563 218.18786,460.97939 C 220.55477,466.90707 212.22048,455.18919 207.63437,459.22488 C 198.51445,457.77246 201.19451,474.78725 202.29514,471.02144 C 196.50805,460.99246 177.82815,466.56583 181.67376,478.92035 C 182.13548,484.58514 190.97497,488.94612 182.05118,484.2482 C 169.85352,479.64326 158.9022,501.07597 173.63911,503.72136 C 167.59683,503.73458 156.67833,509.11908 162.00541,518.57008 C 163.88557,523.89226 173.02984,522.81594 163.70301,524.64463 C 154.23156,527.45598 155.19195,539.43412 160.63188,545.29929 C 164.03491,549.0655 172.63347,543.75393 166.30552,549.56924 C 162.73858,562.1903 184.34484,558.15427 182.76263,555.58376 C 182.40921,565.00375 197.44536,565.04719 199.64386,556.93466 C 203.0509,569.41514 221.00171,566.42038 224.1364,555.54284 C 229.41511,563.69142 242.53708,569.30682 247.95221,557.15574 C 249.6487,548.32239 254.75114,564.6521 261.84975,561.88039 C 270.80333,565.22569 271.75564,543.42435 274.74419,557.71843 C 277.77816,568.2941 292.3675,562.26446 294.24007,553.45108 C 298.42193,546.88683 301.61735,563.14172 309.40356,560.6214 C 317.0448,562.39745 323.3214,550.37508 323.04282,548.19645 C 324.18473,560.47383 345.34033,562.23247 348.99484,550.89341 C 353.76865,538.73947 353.04484,559.4431 362.38922,556.55821 C 369.41498,558.78821 373.99253,552.13522 373.78415,546.92316 C 378.35386,554.13603 389.4843,558.83952 394.80144,549.89547 C 399.75671,542.44997 407.48066,559.1029 412.80848,548.48007 C 419.21035,541.56232 408.07821,533.83643 404.2585,538.85014 C 417.09178,531.43827 399.67158,520.79646 392.88485,529.46448 C 389.85905,539.10705 390.96037,521.63475 382.62894,524.45119 C 373.21241,526.61643 366.39577,532.90362 355.95164,529.50258 C 342.18629,529.36954 325.58921,523.26697 322.35265,508.29435 C 321.51755,492.13613 322.25022,475.5636 317.85223,459.81068 C 314.26102,449.3179 325.61855,445.05298 321.00555,434.45496 z"
       id="path3294" />
    <path
       style="fill:#a1f38e;fill-opacity:1;fill-rule:evenodd;stroke:#3e7e42;stroke-width:2.9000001;stroke-linecap:butt;stroke-linejoin:miter;stroke-miterlimit:4;stroke-dasharray:none;stroke-opacity:1"
       d="M 323.48349,451.33631 C 322.47252,452.0076 318.57425,451.89414 316.34293,451.33631 C 314.29003,450.82308 312.35762,451.33631 309.67841,451.33631 C 306.48059,451.33631 305.65964,452.15561 303.48992,453.24049 C 301.80249,454.08421 299.32043,455.32526 297.77748,456.09675 C 296.75412,456.60844 296.02692,461.1949 295.87333,461.80929 C 295.20417,464.48595 294.07391,465.67479 293.49315,467.99786 C 292.97418,470.07373 293.49315,472.98612 293.49315,475.13853 C 293.49315,477.0639 296.23182,478.82934 297.30144,479.89897 C 298.25927,480.85683 302.1918,480.37503 303.96596,480.37503 C 308.27746,480.37503 308.22869,479.46615 309.67841,476.56667 C 310.58098,474.76149 310.69479,471.07292 311.10652,469.42599 C 311.91841,466.1784 310.75667,464.41317 312.05859,461.80929 C 313.22353,459.47937 314.67628,458.47697 317.77104,458.47697 C 319.9719,458.47697 322.08231,460.26888 324.43556,460.8572 C 324.86298,460.96405 326.18159,461.20641 326.81574,461.33324"
       id="path3296" />
    <path
       style="fill:#c2f3b7;fill-opacity:1;fill-rule:evenodd;stroke:#c1f4b4;stroke-width:1px;stroke-linecap:butt;stroke-linejoin:miter;stroke-opacity:1"
       d="M 311.10652,454.19298 C 309.48286,455.71851 307.64881,459.02896 306.34615,462.28562 C 305.37684,464.70889 306.39308,467.9042 305.39407,469.90221 C 303.91088,472.8686 306.07027,473.77948 302.53785,474.66258 C 299.23818,475.4875 297.76825,474.1404 297.30144,471.80636 C 296.86624,469.63036 297.30144,466.89316 297.30144,464.6658 C 297.30144,461.89118 297.7605,459.49728 298.25351,457.52524 C 298.77718,455.43058 302.64482,455.09157 304.442,454.19298 C 305.71099,453.55849 309.76041,454.19298 311.10652,454.19298 z"
       id="path3298" />
    <rect
       style="fill:#9cbbe7;fill-opacity:0.98039216;stroke:#7d7ade;stroke-width:0.93604219;stroke-opacity:0.99607843"
       id="rect3304"
       width="6.3250875"
       height="16.847492"
       x="331.98782"
       y="433.68179"
       transform="matrix(0.9930197,0.117949,-7.6588461e-2,0.9970628,0,0)"
       ry="0.42049888"
       rx="0" />
    <text
       xml:space="preserve"
       style="font-size:8.96445465px;font-style:normal;font-weight:normal;fill:#000000;fill-opacity:1;stroke:none;stroke-width:1px;stroke-linecap:butt;stroke-linejoin:miter;stroke-opacity:1;font-family:Bitstream Vera Sans"
       x="337.11026"
       y="434.88123"
       id="text3310"
       transform="matrix(0.9684592,0.1110682,-7.1676548e-2,1.0243477,0,0)"><tspan
         sodipodi:role="line"
         id="tspan3312"
         x="337.11026"
         y="434.88123">()</tspan></text>
  </g>
</svg>
