<?xml version="1.0" encoding="UTF-8" standalone="no"?>
<!-- Created with Inkscape (http://www.inkscape.org/) -->
<svg
   xmlns:dc="http://purl.org/dc/elements/1.1/"
   xmlns:cc="http://creativecommons.org/ns#"
   xmlns:rdf="http://www.w3.org/1999/02/22-rdf-syntax-ns#"
   xmlns:svg="http://www.w3.org/2000/svg"
   xmlns="http://www.w3.org/2000/svg"
   xmlns:xlink="http://www.w3.org/1999/xlink"
   xmlns:sodipodi="http://sodipodi.sourceforge.net/DTD/sodipodi-0.dtd"
   xmlns:inkscape="http://www.inkscape.org/namespaces/inkscape"
   width="744.09448819"
   height="1052.3622047"
   id="svg2"
   sodipodi:version="0.32"
   inkscape:version="0.46"
   sodipodi:docbase="C:\home\logo_page"
   sodipodi:docname="logo.svg"
   inkscape:export-filename="/home/zkat/hackery/lisp/sheeple/doc/logo.png"
   inkscape:export-xdpi="258.45999"
   inkscape:export-ydpi="258.45999"
   inkscape:output_extension="org.inkscape.output.svg.inkscape">
  <defs
     id="defs4">
    <inkscape:perspective
       sodipodi:type="inkscape:persp3d"
       inkscape:vp_x="0 : 526.18109 : 1"
       inkscape:vp_y="0 : 1000 : 0"
       inkscape:vp_z="744.09448 : 526.18109 : 1"
       inkscape:persp3d-origin="372.04724 : 350.78739 : 1"
       id="perspective99" />
    <linearGradient
       id="linearGradient8707">
      <stop
         style="stop-color:#8de17a;stop-opacity:1.0000000;"
         offset="0.00000000"
         id="stop8709" />
      <stop
         style="stop-color:#a3f590;stop-opacity:1.0000000;"
         offset="1.0000000"
         id="stop8711" />
    </linearGradient>
    <linearGradient
       id="linearGradient7973">
      <stop
         id="stop7975"
         offset="0.00000000"
         style="stop-color:#71bc60;stop-opacity:1.0000000;" />
      <stop
         id="stop7977"
         offset="1.0000000"
         style="stop-color:#77ce64;stop-opacity:0.42352942;" />
    </linearGradient>
    <linearGradient
       id="linearGradient6509">
      <stop
         style="stop-color:#7a73de;stop-opacity:1.0000000;"
         offset="0.00000000"
         id="stop6511" />
      <stop
         id="stop6517"
         offset="0.50000000"
         style="stop-color:#a2c8e9;stop-opacity:0.98039216;" />
      <stop
         style="stop-color:#7a73de;stop-opacity:1.0000000;"
         offset="1.0000000"
         id="stop6513" />
    </linearGradient>
    <linearGradient
       id="linearGradient5773">
      <stop
         style="stop-color:#000000;stop-opacity:0.00000000;"
         offset="0.00000000"
         id="stop5775" />
      <stop
         id="stop5781"
         offset="0.50000000"
         style="stop-color:#616161;stop-opacity:1.0000000;" />
      <stop
         style="stop-color:#000000;stop-opacity:0;"
         offset="1"
         id="stop5777" />
    </linearGradient>
    <linearGradient
       id="linearGradient5037">
      <stop
         id="stop5039"
         offset="0.00000000"
         style="stop-color:#d6d1f9;stop-opacity:1.0000000;" />
      <stop
         id="stop5041"
         offset="1.0000000"
         style="stop-color:#9687fa;stop-opacity:1.0000000;" />
    </linearGradient>
    <linearGradient
       id="linearGradient4303">
      <stop
         style="stop-color:#d6d1f9;stop-opacity:1.0000000;"
         offset="0.00000000"
         id="stop4305" />
      <stop
         style="stop-color:#9687fa;stop-opacity:1.0000000;"
         offset="1.0000000"
         id="stop4307" />
    </linearGradient>
    <linearGradient
       id="linearGradient2115">
      <stop
         style="stop-color:#d2f1cb;stop-opacity:1.0000000;"
         offset="0.00000000"
         id="stop2117" />
      <stop
         style="stop-color:#cdf9c3;stop-opacity:0.42268041;"
         offset="1.0000000"
         id="stop2119" />
    </linearGradient>
    <linearGradient
       inkscape:collect="always"
       xlink:href="#linearGradient2115"
       id="linearGradient2121"
       x1="272.79681"
       y1="476.64795"
       x2="254.12024"
       y2="535.94427"
       gradientUnits="userSpaceOnUse" />
    <radialGradient
       inkscape:collect="always"
       xlink:href="#linearGradient4303"
       id="radialGradient4309"
       cx="300.83069"
       cy="447.85394"
       fx="300.83069"
       fy="447.85394"
       r="78.713470"
       gradientTransform="matrix(1.000000,0.000000,0.000000,0.960976,0.000000,15.90946)"
       gradientUnits="userSpaceOnUse" />
    <linearGradient
       inkscape:collect="always"
       xlink:href="#linearGradient5037"
       id="linearGradient5045"
       x1="225.84930"
       y1="641.64783"
       x2="253.46617"
       y2="543.98328"
       gradientUnits="userSpaceOnUse" />
    <linearGradient
       inkscape:collect="always"
       xlink:href="#linearGradient5773"
       id="linearGradient5779"
       x1="80.912460"
       y1="670.96942"
       x2="301.00812"
       y2="670.96942"
       gradientUnits="userSpaceOnUse" />
    <linearGradient
       inkscape:collect="always"
       xlink:href="#linearGradient6509"
       id="linearGradient6515"
       x1="456.66621"
       y1="428.55343"
       x2="579.09352"
       y2="428.55343"
       gradientUnits="userSpaceOnUse" />
    <linearGradient
       inkscape:collect="always"
       xlink:href="#linearGradient7973"
       id="linearGradient7979"
       gradientUnits="userSpaceOnUse"
       x1="209.93025"
       y1="609.15863"
       x2="272.07062"
       y2="554.45270" />
    <linearGradient
       inkscape:collect="always"
       xlink:href="#linearGradient8707"
       id="linearGradient8713"
       x1="202.42282"
       y1="630.79425"
       x2="201.15987"
       y2="501.72241"
       gradientUnits="userSpaceOnUse" />
  </defs>
  <sodipodi:namedview
     id="base"
     pagecolor="#ffffff"
     bordercolor="#666666"
     borderopacity="1.0"
     inkscape:pageopacity="0.0"
     inkscape:pageshadow="2"
     inkscape:zoom="1.4854022"
     inkscape:cx="225.60998"
     inkscape:cy="525.90225"
     inkscape:document-units="px"
     inkscape:current-layer="layer1"
     inkscape:window-width="1678"
     inkscape:window-height="1029"
     inkscape:window-x="1680"
     inkscape:window-y="19"
     showgrid="false" />
  <metadata
     id="metadata7">
    <rdf:RDF>
      <cc:Work
         rdf:about="">
        <dc:format>image/svg+xml</dc:format>
        <dc:type
           rdf:resource="http://purl.org/dc/dcmitype/StillImage" />
      </cc:Work>
    </rdf:RDF>
  </metadata>
  <g
     inkscape:label="Layer 1"
     inkscape:groupmode="layer"
     id="layer1">
    <path
       style="fill:url(#linearGradient5779);fill-opacity:1.0;fill-rule:evenodd;stroke:none;stroke-width:1.0000000px;stroke-linecap:butt;stroke-linejoin:miter;stroke-opacity:1.0000000;opacity:0.16666667"
       d="M 67.144386,666.93597 C 74.120426,681.02585 87.234595,682.74658 102.89660,679.43686 C 111.72000,677.57228 140.39281,675.65602 160.44893,683.50406 C 180.50504,691.35211 204.88673,682.15623 233.66290,680.41222 C 262.43906,678.66821 271.19356,686.99208 290.37767,677.40003 C 309.56178,667.80797 354.03404,665.19196 329.61790,656.47191 C 305.20176,647.75186 219.74527,649.49587 187.48108,653.85589 C 155.21690,658.21592 83.712481,637.28780 71.504411,642.51983 C 58.555797,648.06924 64.528371,654.72790 67.144386,666.93597 z "
       id="path2123"
       sodipodi:nodetypes="csssssszc" />
    <path
       style="fill:#8ed97d;fill-opacity:1.0000000;fill-rule:evenodd;stroke:#3e7e42;stroke-width:2.9830000;stroke-linecap:butt;stroke-linejoin:miter;stroke-miterlimit:4.0000000;stroke-dasharray:none;stroke-opacity:1.0000000"
       d="M 142.76766,550.12665 C 136.15502,574.26631 130.95896,630.57333 127.69749,652.88979 C 126.89916,652.62576 126.03531,652.46271 125.14665,652.50195 C 121.07030,652.68196 117.93038,656.25924 118.11662,660.47614 C 118.30285,664.69302 121.74452,667.94836 125.82086,667.76832 C 128.64019,667.64379 130.93357,665.85431 132.07147,663.39453 C 133.29062,666.04330 135.99007,667.85099 139.08140,667.71446 C 143.15772,667.53442 146.33369,664.06501 146.15367,659.98866 C 145.97364,655.91230 142.50558,652.76757 138.42924,652.94760 C 138.41852,652.94808 138.40872,652.94846 138.39802,652.94898 C 138.90516,649.31332 148.99544,582.24518 150.21242,575.50724 C 151.46757,568.55800 150.73287,521.04944 142.76766,550.12665 z "
       id="path7191"
       sodipodi:nodetypes="ccssscssscss" />
    <path
       style="fill:none;fill-opacity:0.75000000;fill-rule:evenodd;stroke:none;stroke-width:1.0000000px;stroke-linecap:butt;stroke-linejoin:miter;stroke-opacity:1.0000000"
       d="M 70.112026,725.23378 C 196.77942,746.08337 316.58355,743.97138 438.34231,722.65281"
       id="path3574"
       sodipodi:nodetypes="cc" />
    <path
       style="opacity:1.0000000;color:#000000;fill:url(#linearGradient6515);fill-opacity:1.0;fill-rule:nonzero;stroke:none;stroke-width:3.0000000;stroke-linecap:round;stroke-linejoin:round;marker:none;marker-start:none;marker-mid:none;marker-end:none;stroke-miterlimit:4.0000000;stroke-dasharray:none;stroke-dashoffset:0.00000000;stroke-opacity:1.0000000;visibility:visible;display:inline;overflow:visible"
       d="M 456.66621,444.89871 C 475.28118,450.63386 493.51137,438.88145 504.22314,445.63641 C 514.93490,452.39137 524.28502,462.05589 541.13718,460.51176 C 557.80512,458.98451 579.09352,450.95426 579.09352,450.95426 C 579.09352,450.95426 558.17039,441.92846 549.14440,431.66233 C 540.11839,421.39621 535.83465,410.77594 519.99221,405.10761 C 498.47786,397.40990 479.61491,401.48012 470.70087,396.43061 C 459.46347,406.21159 456.66621,444.89871 456.66621,444.89871 z "
       id="path3572"
       sodipodi:nodetypes="csscsscc" />
    <path
       style="fill:none;fill-opacity:0.75000000;fill-rule:evenodd;stroke:#ffffff;stroke-width:4.8630000;stroke-linecap:round;stroke-linejoin:round;stroke-miterlimit:4.0000000;stroke-dasharray:none;stroke-opacity:1.0000000"
       d="M 476.70033,405.01034 L 467.44645,438.27363 L 484.10745,436.34116"
       id="path3586"
       sodipodi:nodetypes="ccc" />
    <path
       style="fill:none;fill-opacity:0.75000000;fill-rule:evenodd;stroke:#ffffff;stroke-width:4.8630000;stroke-linecap:round;stroke-linejoin:round;stroke-miterlimit:4.0000000;stroke-dasharray:none;stroke-opacity:1.0000000"
       d="M 498.25829,406.72852 L 492.61695,436.08784"
       id="path3588"
       sodipodi:nodetypes="cc" />
    <path
       style="fill:none;fill-opacity:0.75000000;fill-rule:evenodd;stroke:#ffffff;stroke-width:4.8630000;stroke-linecap:round;stroke-linejoin:round;stroke-miterlimit:4.0000000;stroke-dasharray:none;stroke-opacity:1.0000000"
       d="M 523.32646,417.67134 C 519.81816,412.52468 506.68473,404.66125 505.33079,415.73168 C 503.97684,426.80214 525.41239,424.10169 520.11053,437.40330 C 515.79042,448.24184 501.89764,433.67985 501.89764,433.67985"
       id="path3590"
       sodipodi:nodetypes="cssc" />
    <path
       style="fill:none;fill-opacity:0.75000000;fill-rule:evenodd;stroke:#ffffff;stroke-width:4.8630000;stroke-linecap:round;stroke-linejoin:round;stroke-miterlimit:4.0000000;stroke-dasharray:none;stroke-opacity:1.0000000"
       d="M 525.36140,451.00300 L 531.36075,423.06948 C 531.36075,423.06948 545.14439,433.11252 542.29152,439.77667 C 538.41438,448.83345 528.95141,436.27401 528.95141,436.27401"
       id="path3592"
       sodipodi:nodetypes="ccsc" />
    <path
       style="fill:url(#linearGradient8713);fill-opacity:1.0;fill-rule:evenodd;stroke:#3e7e42;stroke-width:2.9830000;stroke-linecap:butt;stroke-linejoin:miter;stroke-miterlimit:4.0000000;stroke-dasharray:none;stroke-opacity:1.0000000"
       d="M 270.51899,473.63452 C 186.03183,473.32884 117.33411,508.62334 108.09375,537.32081 C 100.42250,561.14521 89.846437,628.73395 85.603534,650.88478 C 84.817635,650.58579 83.961816,650.38478 83.072284,650.38478 C 78.991969,650.38476 75.697281,653.82002 75.697284,658.04103 C 75.697282,662.26202 78.991971,665.66604 83.072284,665.66603 C 85.894372,665.66601 88.264466,663.97946 89.509784,661.57228 C 90.610880,664.27225 93.227950,666.19729 96.322284,666.19728 C 100.40259,666.19726 103.72853,662.87136 103.72853,658.79103 C 103.72853,654.71070 100.40259,651.41602 96.322284,651.41603 C 96.311560,651.41603 96.301744,651.41598 96.291034,651.41603 C 96.958087,647.80628 107.04943,590.82074 111.61669,581.08887 C 114.61685,574.69618 238.84164,568.85811 240.75000,574.72706 C 243.50651,583.20447 236.27814,637.10872 234.63478,658.67013 C 234.24628,658.61772 233.88360,658.50053 233.47853,658.51388 C 229.40043,658.64826 226.21453,662.20141 226.35353,666.42013 C 226.49253,670.63886 229.90044,673.92950 233.97853,673.79513 C 236.79908,673.70217 239.09441,671.92951 240.25978,669.48263 C 241.44920,672.14488 244.13588,673.99079 247.22853,673.88888 C 251.30663,673.75452 254.51915,670.31075 254.38478,666.23263 C 254.25042,662.15453 250.83789,658.97325 246.75978,659.10763 C 246.41000,659.11916 246.09186,659.23567 245.75978,659.29513 C 246.92433,642.74667 255.09873,576.54431 259.42392,571.64309 C 262.37946,568.29392 287.10830,566.78265 287.88858,572.13930 C 288.57332,576.84027 300.27776,647.89279 298.96818,655.28002 C 291.03140,655.02048 285.29440,664.47746 289.74349,668.25018 C 293.91482,671.78736 300.98301,672.97801 303.34529,665.55805 C 308.04368,673.55644 315.38495,669.99998 317.88153,666.13649 C 320.02882,662.81352 317.73746,656.01493 307.96818,654.90502 C 311.81199,638.22268 303.11619,563.96683 304.46875,561.97706 C 306.02930,559.68134 313.84474,546.65990 314.62500,537.47706 C 314.73280,536.20836 314.71985,533.92375 314.56250,531.16456 C 338.96788,535.84741 355.35651,538.98893 366.14040,533.06486 C 381.40207,524.68094 384.27702,518.47614 399.81250,508.25831 C 419.15908,495.53388 433.67678,503.16068 442.94710,501.26058 C 452.21743,499.36053 447.92808,486.96815 453.52398,477.50280 C 459.59978,467.22571 432.04243,459.98752 425.71986,468.08875 C 417.85160,478.17050 419.26202,485.20207 412.17309,487.66407 C 402.87743,490.89246 382.69140,503.22203 376.08702,507.88257 C 364.89903,515.77764 354.86141,522.38042 334.84375,514.75831 C 320.03993,507.37383 323.22898,490.84653 303.81250,482.63331 C 294.38984,477.78969 285.27126,473.96796 277.93750,472.69581 C 277.55554,472.60932 277.17096,472.55316 276.78125,472.47706 C 276.32712,472.41403 275.87541,472.36098 275.43750,472.32081 C 273.72290,472.04335 272.38271,473.70349 270.51899,473.63452 z "
       id="path1306"
       sodipodi:nodetypes="cscssscssscsscssscssscssczczcsscssssssscccscc" />
    <path
       transform="matrix(0.989097,0.147266,-0.270564,0.962702,0.000000,0.000000)"
       style="fill:#e0773e;fill-opacity:1.0000000;stroke:#000000;stroke-width:2.7335560;stroke-miterlimit:4.0000000;stroke-opacity:1.0000000"
       d="M 560.34112,321.05953 C 562.60643,321.05953 564.62104,322.68769 564.62104,326.88038 L 563.99561,441.61088 C 563.99561,445.80357 562.59362,447.05283 560.32831,447.05283 C 558.06301,447.05283 555.81761,445.80357 555.81761,441.61088 L 556.44304,326.88038 C 556.44304,322.68769 558.07582,321.05953 560.34112,321.05953 z "
       id="rect2844"
       sodipodi:nodetypes="cccsccc" />
    <path
       style="fill:#ffffff;fill-opacity:1.0000000;fill-rule:evenodd;stroke:none;stroke-width:1.0000000px;stroke-linecap:butt;stroke-linejoin:miter;stroke-opacity:1.0000000"
       d="M 246.14310,509.11110 C 241.02119,526.84076 255.00793,532.35666 255.00793,532.35666 C 255.00793,532.35666 260.52383,535.90259 264.85774,537.08457 C 269.19166,538.26655 286.67508,543.28995 288.10330,523.88582 C 281.45468,522.01436 246.14310,509.11110 246.14310,509.11110 z "
       id="path9395"
       sodipodi:nodetypes="ccscc" />
    <path
       style="fill:none;fill-opacity:0.75000000;fill-rule:evenodd;stroke:#000000;stroke-width:1.0000000px;stroke-linecap:butt;stroke-linejoin:miter;stroke-opacity:1.0000000"
       d="M 281.99642,521.91586 L 278.25349,538.46354"
       id="path10849" />
    <path
       style="fill:none;fill-opacity:0.75000000;fill-rule:evenodd;stroke:#000000;stroke-width:1.0000000px;stroke-linecap:butt;stroke-linejoin:miter;stroke-opacity:1.0000000"
       d="M 275.88954,520.33989 L 271.75261,538.46354"
       id="path10851" />
    <path
       style="fill:none;fill-opacity:0.75000000;fill-rule:evenodd;stroke:#000000;stroke-width:1.0000000px;stroke-linecap:butt;stroke-linejoin:miter;stroke-opacity:1.0000000"
       d="M 270.17664,517.97593 L 266.03972,536.69058"
       id="path10853" />
    <path
       style="fill:none;fill-opacity:0.75000000;fill-rule:evenodd;stroke:#000000;stroke-width:1.0000000px;stroke-linecap:butt;stroke-linejoin:miter;stroke-opacity:1.0000000"
       d="M 264.66075,516.00597 L 260.52383,534.72061 L 264.66075,516.00597 z "
       id="path10855" />
    <path
       style="fill:none;fill-opacity:0.75000000;fill-rule:evenodd;stroke:#000000;stroke-width:1.0000000px;stroke-linecap:butt;stroke-linejoin:miter;stroke-opacity:1.0000000"
       d="M 258.94785,514.03601 L 255.00793,532.35666"
       id="path10857" />
    <path
       style="fill:none;fill-opacity:0.75000000;fill-rule:evenodd;stroke:#000000;stroke-width:1.0000000px;stroke-linecap:butt;stroke-linejoin:miter;stroke-opacity:1.0000000"
       d="M 254.02295,512.26304 L 250.28002,528.21974"
       id="path10859" />
    <path
       style="fill:none;fill-opacity:0.75000000;fill-rule:evenodd;stroke:#000000;stroke-width:1.0000000px;stroke-linecap:butt;stroke-linejoin:miter;stroke-opacity:1.0000000"
       d="M 249.49203,510.09608 L 246.53709,522.30985"
       id="path10861" />
    <path
       style="fill:none;fill-opacity:0.75000000;fill-rule:evenodd;stroke:#000000;stroke-width:1.0000000px;stroke-linecap:butt;stroke-linejoin:miter;stroke-opacity:1.0000000"
       d="M 286.52734,531.37168 C 273.91957,530.97769 253.43196,524.08282 244.96112,517.18795"
       id="path10863"
       sodipodi:nodetypes="cs" />
    <path
       style="opacity:1.0000000;color:#000000;fill:none;fill-opacity:1.0000000;fill-rule:evenodd;stroke:#3e7e42;stroke-width:2.9830000;stroke-linecap:butt;stroke-linejoin:miter;marker:none;marker-start:none;marker-mid:none;marker-end:none;stroke-miterlimit:4.0000000;stroke-dasharray:none;stroke-dashoffset:0.00000000;stroke-opacity:1.0000000;visibility:visible;display:inline;overflow:visible"
       d="M 314.73918,531.21038 C 287.29383,524.26287 246.50860,508.88870 246.50860,508.88870 C 246.50860,508.88870 236.65196,531.11393 269.32519,538.14820 C 287.57448,542.07710 288.12150,524.25744 288.12150,524.25744"
       id="path1334"
       sodipodi:nodetypes="ccsc" />
    <path
       style="opacity:1.0000000;color:#000000;fill:#9af286;fill-opacity:1.0000000;fill-rule:evenodd;stroke:#3e7e42;stroke-width:2.9830000;stroke-linecap:round;stroke-linejoin:miter;marker:none;marker-start:none;marker-mid:none;marker-end:none;stroke-miterlimit:4.0000000;stroke-dasharray:none;stroke-dashoffset:0.00000000;stroke-opacity:1.0000000;visibility:visible;display:inline;overflow:visible"
       d="M 448.05225,488.20443 C 457.54479,489.43116 460.35916,478.75382 457.08417,473.68765 C 454.09991,469.07122 443.84736,464.04902 441.23893,470.41365 C 439.28318,475.18573 444.45174,477.89625 448.76518,477.45148"
       id="path1319"
       sodipodi:nodetypes="csss" />
    <path
       style="fill:#9af286;fill-opacity:1.0000000;fill-rule:evenodd;stroke:#3e7e42;stroke-width:2.9830000;stroke-linecap:round;stroke-linejoin:miter;stroke-opacity:1.0000000;opacity:1.0000000;color:#000000;marker:none;marker-start:none;marker-mid:none;marker-end:none;stroke-miterlimit:4.0000000;stroke-dasharray:none;stroke-dashoffset:0;visibility:visible;display:inline;overflow:visible"
       d="M 444.43069,493.83066 C 440.55788,491.80306 435.16203,492.23114 437.58543,485.56144 C 439.37673,480.63139 445.27629,484.41451 453.18149,489.82225 C 461.08670,495.22998 452.88813,501.92241 443.28704,501.09310"
       id="path1317"
       sodipodi:nodetypes="csss" />
    <path
       style="opacity:1.0000000;color:#000000;fill:#9af286;fill-opacity:1.0000000;fill-rule:evenodd;stroke:#3e7e42;stroke-width:2.9830000;stroke-linecap:round;stroke-linejoin:miter;marker:none;marker-start:none;marker-mid:none;marker-end:none;stroke-miterlimit:4.0000000;stroke-dasharray:none;stroke-dashoffset:0.00000000;stroke-opacity:1.0000000;visibility:visible;display:inline;overflow:visible"
       d="M 419.57651,478.78648 C 422.82017,473.02082 423.77214,467.20062 427.28746,465.99345 C 430.68152,464.82794 438.80518,458.88944 441.72524,460.45869 C 444.64525,462.02795 446.97626,467.63368 437.59210,472.14545 C 433.11706,474.29699 432.92789,479.97163 429.29171,482.22177"
       id="path1315"
       sodipodi:nodetypes="csssz" />
    <path
       style="fill:#54de61;fill-opacity:1.0000000;fill-rule:evenodd;stroke:none;stroke-width:0.20767665px;stroke-linecap:butt;stroke-linejoin:miter;stroke-opacity:1.0000000"
       d="M 204.67588,506.38984 C 204.67588,506.38984 224.38821,503.17905 222.72522,491.92631 C 221.32745,482.46817 207.13035,484.57698 199.99263,486.37428 C 200.44519,492.10976 201.21034,495.26298 194.65310,498.02106 C 201.24775,497.88549 202.75869,499.84733 204.67588,506.38984 z "
       id="path15231"
       sodipodi:nodetypes="csccc" />
    <path
       sodipodi:nodetypes="csccc"
       id="path15959"
       d="M 206.84427,528.80171 C 206.84427,528.80171 226.81416,528.50375 226.81212,517.12879 C 226.81042,507.56792 212.45756,507.58106 205.13390,508.31684 C 204.74411,514.05693 205.04063,517.28808 198.15093,519.05910 C 204.69469,519.88794 205.90297,522.04938 206.84427,528.80171 z "
       style="fill:#54de61;fill-opacity:1.0000000;fill-rule:evenodd;stroke:none;stroke-width:0.20767665px;stroke-linecap:butt;stroke-linejoin:miter;stroke-opacity:1.0000000" />
    <path
       style="fill:#54de61;fill-opacity:1.0000000;fill-rule:evenodd;stroke:none;stroke-width:0.20767665px;stroke-linecap:butt;stroke-linejoin:miter;stroke-opacity:1.0000000"
       d="M 207.00459,552.07477 C 207.00459,552.07477 226.93742,553.32665 227.81769,541.98581 C 228.55758,532.45361 214.24694,531.35343 206.88827,531.51894 C 206.05443,537.21150 206.09943,540.45592 199.09312,541.68721 C 205.55288,543.02112 206.58987,545.26977 207.00459,552.07477 z "
       id="path15961"
       sodipodi:nodetypes="csccc" />
    <path
       style="fill:#54de61;fill-opacity:1.0000000;fill-rule:evenodd;stroke:none;stroke-width:0.20767665px;stroke-linecap:butt;stroke-linejoin:miter;stroke-opacity:1.0000000"
       d="M 206.34375 554.53125 C 205.13901 560.15699 204.97815 563.41757 197.90625 564.18750 C 203.30431 565.67653 204.70298 567.72897 205.00000 572.43750 C 211.46987 572.34077 217.37346 572.34767 222.50000 572.46875 C 224.58495 571.12494 226.12602 569.15846 226.53125 566.34375 C 227.89366 556.88047 213.69748 554.84789 206.34375 554.53125 z "
       id="path15963" />
    <path
       style="fill:#54de61;fill-opacity:1.0000000;fill-rule:evenodd;stroke:none;stroke-width:0.20767665px;stroke-linecap:butt;stroke-linejoin:miter;stroke-opacity:1.0000000"
       d="M 196.03125 482.84375 C 187.52447 485.04283 179.42599 487.56587 171.87500 490.34375 C 176.36725 491.29017 177.56746 493.45549 178.37500 498.96875 C 178.37500 498.96874 198.12565 498.39857 198.12500 487.68750 C 198.12488 485.59722 197.29605 484.04852 196.03125 482.84375 z "
       id="path15965" />
    <path
       sodipodi:nodetypes="csccc"
       id="path15967"
       d="M 182.55810,519.59489 C 182.55810,519.59489 202.29393,519.08874 202.32211,508.37771 C 202.34579,499.37485 188.16167,499.54934 180.92217,500.32491 C 180.52175,505.73438 180.80622,508.77360 173.99283,510.51910 C 180.45745,511.22563 181.64578,513.24729 182.55810,519.59489 z "
       style="fill:#54de61;fill-opacity:1.0000000;fill-rule:evenodd;stroke:none;stroke-width:0.20767665px;stroke-linecap:butt;stroke-linejoin:miter;stroke-opacity:1.0000000" />
    <path
       style="fill:#54de61;fill-opacity:1.0000000;fill-rule:evenodd;stroke:none;stroke-width:0.20767665px;stroke-linecap:butt;stroke-linejoin:miter;stroke-opacity:1.0000000"
       d="M 184.40776,541.79081 C 184.40776,541.79081 204.14359,541.28466 204.17177,530.57363 C 204.19545,521.57077 190.01133,521.74526 182.77183,522.52083 C 182.37141,527.93030 182.65588,530.96952 175.84249,532.71502 C 182.30711,533.42155 183.49544,535.44321 184.40776,541.79081 z "
       id="path15971"
       sodipodi:nodetypes="csccc" />
    <path
       sodipodi:nodetypes="csccc"
       id="path15973"
       d="M 184.54511,562.87630 C 184.54511,562.87630 204.25568,563.99547 205.16493,553.32306 C 205.92917,544.35267 191.77877,543.35968 184.50001,543.53705 C 183.65592,548.89525 183.68940,551.94757 176.75551,553.12663 C 183.14009,554.36259 184.15808,556.47516 184.54511,562.87630 z "
       style="fill:#54de61;fill-opacity:1.0000000;fill-rule:evenodd;stroke:none;stroke-width:0.20767665px;stroke-linecap:butt;stroke-linejoin:miter;stroke-opacity:1.0000000" />
    <path
       style="fill:#54de61;fill-opacity:1.0000000;fill-rule:evenodd;stroke:none;stroke-width:0.20767665px;stroke-linecap:butt;stroke-linejoin:miter;stroke-opacity:1.0000000"
       d="M 182.96875 564.81250 C 182.32423 568.90383 182.11368 571.62362 179.00000 573.21875 C 187.45278 572.83281 195.60321 572.57296 203.34375 572.43750 C 201.75888 565.52893 189.59312 564.65108 182.96875 564.81250 z "
       id="path15975" />
    <path
       sodipodi:nodetypes="csccc"
       id="path15977"
       d="M 159.98437,513.05560 C 159.98437,513.05560 179.54898,510.41269 178.41571,499.76174 C 177.46318,490.80938 164.07633,494.00942 156.96360,495.56532 C 157.15202,500.98633 157.06958,502.48804 150.48559,504.96194 C 156.98871,504.96342 158.38922,506.84433 159.98437,513.05560 z "
       style="fill:#54de61;fill-opacity:1.0000000;fill-rule:evenodd;stroke:none;stroke-width:0.20767665px;stroke-linecap:butt;stroke-linejoin:miter;stroke-opacity:1.0000000" />
    <path
       style="fill:#54de61;fill-opacity:1.0000000;fill-rule:evenodd;stroke:none;stroke-width:0.20767665px;stroke-linecap:butt;stroke-linejoin:miter;stroke-opacity:1.0000000"
       d="M 162.14231,533.71013 C 162.14231,533.71013 181.70692,531.06722 180.57365,520.41627 C 179.62112,511.46391 165.53952,513.17520 158.42679,514.73110 C 158.61521,520.15211 159.22752,523.14257 152.64353,525.61647 C 159.14665,525.61795 160.54716,527.49886 162.14231,533.71013 z "
       id="path15979"
       sodipodi:nodetypes="csccc" />
    <path
       sodipodi:nodetypes="csccc"
       id="path15981"
       d="M 161.73793,553.35464 C 161.73793,553.35464 181.48022,553.38736 181.80074,542.68108 C 182.07015,533.68222 167.88654,533.46950 160.62858,534.04718 C 160.08065,539.44372 160.28207,542.48957 153.42357,544.04844 C 159.86650,544.93116 160.99920,546.98451 161.73793,553.35464 z "
       style="fill:#54de61;fill-opacity:1.0000000;fill-rule:evenodd;stroke:none;stroke-width:0.20767665px;stroke-linecap:butt;stroke-linejoin:miter;stroke-opacity:1.0000000" />
    <path
       style="fill:#54de61;fill-opacity:1.0000000;fill-rule:evenodd;stroke:none;stroke-width:0.20767665px;stroke-linecap:butt;stroke-linejoin:miter;stroke-opacity:1.0000000"
       d="M 160.85077,573.63589 C 160.85077,573.63589 180.55493,574.86270 181.52246,564.19542 C 182.33569,555.22933 168.19092,554.15908 160.91130,554.29668 C 160.03796,559.65019 160.05477,562.70265 153.11454,563.84381 C 159.49228,565.11464 160.49870,567.23275 160.85077,573.63589 z "
       id="path15983"
       sodipodi:nodetypes="csccc" />
    <path
       sodipodi:nodetypes="csccc"
       id="path15987"
       d="M 141.03633,527.19872 C 141.03633,527.19872 159.26152,523.13440 157.31335,513.12248 C 155.67587,504.70724 142.54253,507.45143 135.96590,509.49341 C 136.59135,514.62008 137.41560,517.40771 131.41325,520.27830 C 137.54385,519.76200 139.01949,521.43450 141.03633,527.19872 z "
       style="fill:#54de61;fill-opacity:1.0000000;fill-rule:evenodd;stroke:none;stroke-width:0.20767665px;stroke-linecap:butt;stroke-linejoin:miter;stroke-opacity:1.0000000" />
    <path
       style="fill:#54de61;fill-opacity:1.0000000;fill-rule:evenodd;stroke:none;stroke-width:0.20767665px;stroke-linecap:butt;stroke-linejoin:miter;stroke-opacity:1.0000000"
       d="M 141.31895,546.24122 C 141.31895,546.24122 159.85370,543.97419 158.89150,533.81997 C 158.08275,525.28513 144.74435,526.73505 137.99989,528.12573 C 138.12224,533.28896 138.67062,536.14371 132.41687,538.41507 C 138.56859,538.49928 139.87404,540.30775 141.31895,546.24122 z "
       id="path15989"
       sodipodi:nodetypes="csccc" />
    <path
       sodipodi:nodetypes="csccc"
       id="path15991"
       d="M 140.64248,564.70916 C 140.64248,564.70916 159.29210,563.77735 159.06068,553.58027 C 158.86616,545.00940 145.45812,545.49891 138.63128,546.40227 C 138.38299,551.56098 138.72521,554.44771 132.32465,556.26467 C 138.45449,556.78989 139.62687,558.68734 140.64248,564.70916 z "
       style="fill:#54de61;fill-opacity:1.0000000;fill-rule:evenodd;stroke:none;stroke-width:0.20767665px;stroke-linecap:butt;stroke-linejoin:miter;stroke-opacity:1.0000000" />
    <path
       style="fill:#54de61;fill-opacity:1.0000000;fill-rule:evenodd;stroke:none;stroke-width:0.20767665px;stroke-linecap:butt;stroke-linejoin:miter;stroke-opacity:1.0000000"
       d="M 139.81250 565.50000 C 139.07109 570.61119 139.13895 573.52338 132.59375 574.71875 C 134.51034 575.07033 135.80011 575.55551 136.84375 576.18750 C 143.66955 575.48857 151.25972 574.88782 159.43750 574.34375 C 159.75612 566.05514 146.61893 565.25757 139.81250 565.50000 z "
       id="path15995" />
    <path
       sodipodi:nodetypes="csccc"
       id="path15997"
       d="M 120.55759,539.29735 C 120.55759,539.29735 138.57310,536.58485 137.29636,527.11255 C 136.22320,519.15085 123.25243,520.93302 116.71571,522.44950 C 117.00680,527.27769 117.63697,529.93188 111.60849,532.25691 C 117.61570,532.13961 118.95000,533.79049 120.55759,539.29735 z "
       style="fill:#54de61;fill-opacity:1.0000000;fill-rule:evenodd;stroke:none;stroke-width:0.20767665px;stroke-linecap:butt;stroke-linejoin:miter;stroke-opacity:1.0000000" />
    <path
       style="fill:#54de61;fill-opacity:1.0000000;fill-rule:evenodd;stroke:none;stroke-width:0.20767665px;stroke-linecap:butt;stroke-linejoin:miter;stroke-opacity:1.0000000"
       d="M 120.00330,557.06167 C 120.00330,557.06167 138.19701,556.11039 137.84559,546.55890 C 137.55019,538.53063 124.46769,539.04557 117.81465,539.92050 C 117.63579,544.75414 118.00539,547.45696 111.77972,549.18595 C 117.76996,549.65221 118.93774,551.42479 120.00330,557.06167 z "
       id="path15999"
       sodipodi:nodetypes="csccc" />
    <path
       sodipodi:nodetypes="csccc"
       id="path16003"
       d="M 120.31158,575.55827 C 120.31158,575.55827 138.50529,574.60699 138.15387,565.05550 C 137.85847,557.02723 124.77597,557.54217 118.12293,558.41710 C 117.94407,563.25074 118.31367,565.95356 112.08800,567.68255 C 118.07824,568.14881 119.24602,569.92139 120.31158,575.55827 z "
       style="fill:#54de61;fill-opacity:1.0000000;fill-rule:evenodd;stroke:none;stroke-width:0.20767665px;stroke-linecap:butt;stroke-linejoin:miter;stroke-opacity:1.0000000" />
    <path
       id="path16013"
       d="M 196.03125 482.84375 C 187.52447 485.04283 179.42599 487.56587 171.87500 490.34375 C 176.36725 491.29017 177.56746 493.45549 178.37500 498.96875 C 178.37500 498.96874 198.12565 498.39857 198.12500 487.68750 C 198.12488 485.59722 197.29605 484.04852 196.03125 482.84375 z "
       style="fill:#54de61;fill-opacity:1.0000000;fill-rule:evenodd;stroke:none;stroke-width:0.20767665px;stroke-linecap:butt;stroke-linejoin:miter;stroke-opacity:1.0000000" />
    <path
       style="fill:url(#linearGradient2121);fill-opacity:1.0;fill-rule:evenodd;stroke:none;stroke-width:2.9830000;stroke-linecap:butt;stroke-linejoin:miter;stroke-opacity:1.0000000;opacity:0.85000000;color:#000000;marker:none;marker-start:none;marker-mid:none;marker-end:none;stroke-miterlimit:4.0000000;stroke-dasharray:none;stroke-dashoffset:0;visibility:visible;display:inline;overflow:visible"
       d="M 118.59268,523.92715 C 107.25662,543.11126 111.61664,542.23925 121.20870,539.62324 C 130.80075,537.00722 199.68915,522.18314 209.28120,524.79915 C 218.87326,527.41517 232.82534,523.92715 235.44135,513.46309 C 238.05737,502.99903 238.77435,497.54307 250.24821,501.98922 C 269.16027,509.31769 305.20175,516.07910 319.15383,518.69512 C 333.10591,521.31113 348.80200,533.51920 371.47413,520.43913 C 394.14627,507.35905 412.54953,496.39061 421.17842,489.91895 C 422.92243,488.61095 428.62957,475.76353 430.50800,471.34729 C 431.44721,469.13918 439.39286,464.86685 438.95096,463.74334 C 438.50906,462.61984 433.93678,464.55570 429.23763,467.66914 C 424.38217,470.88614 421.27227,486.21977 415.16824,488.83579 C 409.06420,491.45180 389.78624,502.12702 381.93820,508.23106 C 374.09015,514.33509 353.16203,526.54316 339.20995,519.56712 C 325.25787,512.59108 320.02584,499.51101 308.68977,491.66296 C 297.35371,483.81492 248.52143,468.11882 190.09709,487.30294 C 131.67276,506.48705 129.05674,513.46309 118.59268,523.92715 z "
       id="path1387"
       sodipodi:nodetypes="csssssssszssssssc" />
    <path
       id="path16018"
       d="M 139.81250 565.50000 C 139.07109 570.61119 139.13895 573.52338 132.59375 574.71875 C 134.51034 575.07033 135.80011 575.55551 136.84375 576.18750 C 143.66955 575.48857 151.25972 574.88782 159.43750 574.34375 C 159.75612 566.05514 146.61893 565.25757 139.81250 565.50000 z "
       style="fill:#54de61;fill-opacity:1.0000000;fill-rule:evenodd;stroke:none;stroke-width:0.20767665px;stroke-linecap:butt;stroke-linejoin:miter;stroke-opacity:1.0000000" />
    <path
       id="path16023"
       d="M 182.96875 564.81250 C 182.32423 568.90383 182.11368 571.62362 179.00000 573.21875 C 187.45278 572.83281 195.60321 572.57296 203.34375 572.43750 C 201.75888 565.52893 189.59312 564.65108 182.96875 564.81250 z "
       style="fill:#54de61;fill-opacity:1.0000000;fill-rule:evenodd;stroke:none;stroke-width:0.20767665px;stroke-linecap:butt;stroke-linejoin:miter;stroke-opacity:1.0000000" />
    <path
       sodipodi:nodetypes="csccscssscssscss"
       id="path16026"
       d="M 277.93750,472.69581 C 277.55554,472.60932 277.17096,472.55316 276.78125,472.47706 C 276.32712,472.41403 275.87541,472.36098 275.43750,472.32081 C 273.72290,472.04335 272.38271,473.70349 270.51899,473.63452 C 186.03183,473.32884 117.33411,508.62334 108.09375,537.32081 C 100.42250,561.14521 89.846437,628.73395 85.603534,650.88478 C 84.817635,650.58579 83.961816,650.38478 83.072284,650.38478 C 78.991969,650.38476 75.697281,653.82002 75.697284,658.04103 C 75.697282,662.26202 78.991971,665.66604 83.072284,665.66603 C 85.894372,665.66601 88.264466,663.97946 89.509784,661.57228 C 90.610880,664.27225 93.227950,666.19729 96.322284,666.19728 C 100.40259,666.19726 103.72853,662.87136 103.72853,658.79103 C 103.72853,654.71070 100.40259,651.41602 96.322284,651.41603 C 96.311560,651.41603 96.301744,651.41598 96.291034,651.41603 C 96.958087,647.80628 107.04943,590.82074 111.61669,581.08887 C 114.61685,574.69618 238.84164,568.85811 240.75000,574.72706"
       style="fill:none;fill-opacity:1.0000000;fill-rule:evenodd;stroke:#3e7e42;stroke-width:2.9830000;stroke-linecap:butt;stroke-linejoin:miter;stroke-miterlimit:4.0000000;stroke-dasharray:none;stroke-opacity:1.0000000" />
    <path
       style="fill:#ffffff;fill-opacity:1.0000000;fill-rule:evenodd;stroke:#000000;stroke-width:1.4350000;stroke-linecap:butt;stroke-linejoin:miter;stroke-opacity:1.0000000;stroke-miterlimit:4.0000000;stroke-dasharray:none"
       d="M 264.36900,453.69048 C 254.12520,453.88747 248.21531,462.55530 252.94322,469.64717 C 257.67113,476.73904 275.79479,475.75405 278.15875,468.46519 C 280.52270,461.17633 270.47589,452.90249 264.36900,453.69048 z "
       id="path7197"
       sodipodi:nodetypes="cssc" />
    <path
       id="path7933"
       d="M 267.08631,465.48980 C 272.73936,464.34915 271.50467,460.81573 269.28413,458.04415 C 267.06360,455.27256 261.79147,456.90613 261.90136,460.20656 C 262.01124,463.50699 262.96803,465.05075 267.08631,465.48980 z "
       style="fill:#000000;fill-opacity:1.0000000;fill-rule:evenodd;stroke:none;stroke-width:1.0000000px;stroke-linecap:butt;stroke-linejoin:miter;stroke-opacity:1.0000000" />
    <path
       style="fill:#ffffff;fill-opacity:1.0000000;fill-rule:evenodd;stroke:#000000;stroke-width:1.4350000;stroke-linecap:butt;stroke-linejoin:miter;stroke-opacity:1.0000000;stroke-miterlimit:4.0000000;stroke-dasharray:none"
       d="M 297.07874,475.12108 C 299.24958,464.52072 293.46063,459.97771 284.05361,459.22055 C 274.64658,458.46337 263.06871,463.00639 267.41041,470.57806 C 271.75211,478.14976 290.56616,488.75011 297.07874,475.12108 z "
       id="path1323" />
    <path
       style="fill:#ffffff;fill-opacity:1.0000000;fill-rule:evenodd;stroke:#000000;stroke-width:1.4350000;stroke-linecap:butt;stroke-linejoin:miter;stroke-opacity:1.0000000;stroke-miterlimit:4.0000000;stroke-dasharray:none"
       d="M 242.39530,460.52578 C 233.60908,465.79612 232.79847,476.25561 240.42934,480.05267 C 248.06021,483.84972 263.28824,473.97327 261.70998,466.47495 C 260.13171,458.97663 247.29944,456.80228 242.39530,460.52578 z "
       id="path7199"
       sodipodi:nodetypes="cssc" />
    <path
       style="fill:#000000;fill-opacity:1.0000000;fill-rule:evenodd;stroke:none;stroke-width:1.0000000px;stroke-linecap:butt;stroke-linejoin:miter;stroke-opacity:1.0000000"
       d="M 243.68431,469.83581 C 245.28249,475.37691 248.70337,473.85799 251.28448,471.41867 C 253.86561,468.97936 251.80723,463.85812 248.52678,464.23699 C 245.24633,464.61586 243.78580,465.69544 243.68431,469.83581 z "
       id="path7935" />
    <path
       style="fill:#ffffff;fill-opacity:1.0000000;fill-rule:evenodd;stroke:#000000;stroke-width:1.4350000;stroke-linecap:butt;stroke-linejoin:miter;stroke-opacity:1.0000000;stroke-miterlimit:4.0000000;stroke-dasharray:none"
       d="M 271.68386,472.17278 C 265.53310,466.49400 252.86981,463.08675 249.25172,469.90126 C 245.63364,476.71576 247.80448,490.34482 260.82959,489.58764 C 273.85471,488.83047 277.83459,477.85155 271.68386,472.17278 z "
       id="path1321"
       sodipodi:nodetypes="czzz" />
    <path
       style="fill:#ffffff;fill-opacity:1.0000000;fill-rule:evenodd;stroke:#000000;stroke-width:1.4350000;stroke-linecap:butt;stroke-linejoin:miter;stroke-opacity:1.0000000;stroke-miterlimit:4.0000000;stroke-dasharray:none"
       d="M 277.96176,469.45019 C 270.27891,470.04118 265.35400,478.90602 271.06689,482.84594 C 276.77978,486.78587 288.59956,486.78587 289.58454,479.30001 C 290.56952,471.81415 284.26564,469.25320 277.96176,469.45019 z "
       id="path7195" />
    <path
       style="fill:#000000;fill-opacity:1.0000000;fill-rule:evenodd;stroke:none;stroke-width:1.0000000px;stroke-linecap:butt;stroke-linejoin:miter;stroke-opacity:1.0000000"
       d="M 262.20205,471.61714 C 256.48916,470.82916 256.48916,474.57209 257.67114,477.92102 C 258.85311,481.26996 264.36901,481.46696 265.35399,478.31502 C 266.33897,475.16308 265.94498,473.39011 262.20205,471.61714 z "
       id="path7927" />
    <path
       id="path7929"
       d="M 283.40203,472.86341 C 278.97987,472.29768 278.97987,474.98495 279.89481,477.38933 C 280.80972,479.79372 285.07940,479.93516 285.84184,477.67220 C 286.60427,475.40925 286.29931,474.13633 283.40203,472.86341 z "
       style="fill:#000000;fill-opacity:1.0000000;fill-rule:evenodd;stroke:none;stroke-width:0.74548370px;stroke-linecap:butt;stroke-linejoin:miter;stroke-opacity:1.0000000" />
    <path
       style="fill:#000000;fill-opacity:1.0000000;fill-rule:evenodd;stroke:none;stroke-width:1.0000000px;stroke-linecap:butt;stroke-linejoin:miter;stroke-opacity:1.0000000"
       d="M 287.01749,462.95586 C 281.94580,465.70104 284.16055,468.71839 287.09502,470.71872 C 290.02948,472.71907 294.59267,469.61404 293.52166,466.49028 C 292.45064,463.36653 291.08393,462.17038 287.01749,462.95586 z "
       id="path7931" />
    <path
       style="fill:none;fill-opacity:0.75000000;fill-rule:evenodd;stroke:none;stroke-width:1.0000000px;stroke-linecap:butt;stroke-linejoin:miter;stroke-opacity:1.0000000"
       d="M 157.32993,388.01687 C 240.06214,383.69759 287.32367,387.19261 345.54264,390.07213"
       id="path3573"
       sodipodi:nodetypes="cs" />
    <path
       style="fill:url(#linearGradient7979);fill-opacity:1.0;fill-rule:evenodd;stroke:none;stroke-width:2.9830000;stroke-linecap:butt;stroke-linejoin:miter;stroke-opacity:1.0000000;opacity:0.52777778;color:#000000;marker:none;marker-start:none;marker-mid:none;marker-end:none;stroke-miterlimit:4.0000000;stroke-dasharray:none;stroke-dashoffset:0.00000000;visibility:visible;display:inline;overflow:visible"
       d="M 299.17307,535.22016 C 307.72087,538.63929 303.44697,563.42791 290.62527,565.13747 C 277.80356,566.84703 191.47076,569.41137 176.08472,570.26615 C 160.69868,571.12093 119.66923,576.24961 119.66923,576.24961 C 119.66923,576.24961 113.68577,571.12093 112.83099,565.99225 C 111.97621,560.86357 169.24648,551.46099 189.76120,550.60621 C 210.27593,549.75143 248.25830,537.79821 253.86971,540.34885 C 272.67489,548.89665 294.04439,536.92972 299.17307,535.22016 z "
       id="path7245"
       sodipodi:nodetypes="csscsssc" />
    <path
       style="fill:#86d973;fill-opacity:1.0000000;fill-rule:evenodd;stroke:none;stroke-width:1.0000000px;stroke-linecap:butt;stroke-linejoin:miter;stroke-opacity:1.0000000"
       d="M 453.19526,478.54252 C 450.22096,478.65268 448.56857,478.21204 448.01777,480.08475 C 447.46697,481.95746 449.44984,485.48255 450.66159,485.81303 C 451.87335,486.14351 455.50860,483.72001 455.72892,482.06762 C 455.94924,480.41523 454.95780,479.20348 453.19526,478.54252 z "
       id="path8715" />
    <path
       style="fill:#86d973;fill-opacity:1.0000000;fill-rule:evenodd;stroke:none;stroke-width:1.0000000px;stroke-linecap:butt;stroke-linejoin:miter;stroke-opacity:1.0000000"
       d="M 451.76319,491.54131 C 449.56000,490.21940 445.15363,489.66861 444.49267,490.54988 C 443.83172,491.43116 447.35681,491.98195 446.58570,493.74450 C 445.81459,495.50705 444.27236,495.28673 443.72156,496.05784 C 443.17076,496.82896 442.17933,498.15087 443.28092,498.92199 C 444.38251,499.69310 452.20382,498.26103 452.86478,497.15944 C 453.52573,496.05784 455.61876,493.41402 451.76319,491.54131 z "
       id="path8717" />
    <path
       style="fill:#ffffff;fill-rule:evenodd;stroke:#000000;stroke-width:1.912;stroke-linecap:butt;stroke-linejoin:miter;stroke-opacity:1;stroke-miterlimit:4;stroke-dasharray:none"
       d="M 226.49599,468.52004 C 226.57553,466.43176 227.06261,460.56009 225.44504,458.91797 C 223.76539,457.21282 222.69737,452.39447 219.13938,453.5835 C 216.17081,454.57555 216.18427,453.58351 212.30826,453.58351 C 208.859,453.58351 207.74017,455.92355 206.52809,458.38453 C 205.29398,460.8902 205.0541,462.23618 204.42619,464.78591 C 204.16412,465.85018 204.42619,467.40662 204.42619,468.52004 C 203.49352,472.30735 201.03457,460.66385 197.59506,458.91798 C 194.31941,457.25529 189.61209,457.85109 186.56017,457.85109 C 182.36938,457.85109 180.32003,457.23429 177.62715,459.45143 C 174.84646,461.7409 173.78359,466.7218 172.89792,468.52004 C 171.70068,470.95082 174.66154,473.62777 173.94886,476.52177 C 173.28464,479.219 171.84381,475.9851 170.27056,474.38797 C 167.9586,472.04091 163.23204,472.25418 159.76112,472.25418 C 156.23333,472.25418 153.45548,476.6445 153.45548,479.72244 C 153.45548,484.75758 152.97164,482.47421 151.3536,479.18899 C 149.96059,476.36068 145.29895,476.52177 142.42058,476.52177 C 139.13341,476.52177 137.62222,476.70777 135.06398,478.65555 C 131.59476,481.29696 132.09963,482.54045 130.33475,486.12383 C 128.83213,489.17467 130.34664,491.50664 130.86021,493.59209 C 131.0339,494.29732 130.51009,491.63631 128.75834,489.85795 C 126.54916,487.61527 122.92651,488.25761 119.82531,488.25761 C 114.62051,488.25761 115.83004,487.30084 113.51967,491.99176 C 112.30756,494.45275 112.47688,497.35935 112.99419,499.46002 C 113.31919,500.77973 116.81868,505.09132 114.5706,500.5269 C 112.84076,497.01471 109.76974,495.80267 106.16307,495.19243 C 102.09859,494.50475 100.00445,495.38452 97.230051,496.79278 C 93.058599,498.91017 92.009426,502.26569 93.026278,506.39484 C 93.722186,509.22069 95.140031,511.21193 96.704577,513.32967 C 99.913572,517.67325 98.951839,515.53725 95.653639,513.86309 C 92.274041,512.14766 91.523382,512.37746 87.771568,513.32967 C 83.353942,514.45083 81.965536,515.51594 79.889501,519.73103 C 79.129963,521.27316 79.364028,527.50171 79.364028,529.33308 C 79.364028,531.13987 85.313173,531.46688 87.771568,531.46688 C 92.296471,531.46688 84.426565,533.16476 83.567799,533.60067 C 81.325028,534.73908 79.963393,537.18477 78.838557,539.46861 C 78.488244,540.17987 78.13793,540.89112 77.787615,541.6024 C 75.903609,545.42759 73.303604,545.83443 75.160258,549.60411 C 76.393015,552.10705 80.873964,551.98776 81.991386,552.27135 C 82.09215,552.29693 75.182481,553.78145 74.109316,558.13929 C 73.30901,561.38909 71.48196,561.99094 71.48196,566.14098 C 71.48196,570.23845 70.272402,570.78099 73.583845,574.1427 C 76.149397,576.74721 78.598399,576.60417 81.991386,575.74304 C 84.037582,575.22373 77.773692,577.93337 77.262144,580.01064 C 76.571887,582.81356 79.691013,585.14362 80.940442,586.41201 C 83.264647,588.7715 85.946946,587.4789 89.34798,587.4789 C 90.399093,587.4789 92.330579,581.23536 92.500814,580.54408 C 93.416918,576.82401 95.128164,584.46551 95.128164,586.41201 C 95.128164,589.42007 97.3931,591.35283 99.331937,591.74648 C 103.50833,592.59444 107.60365,591.23117 108.26496,588.5458 C 109.22673,584.64033 112.1423,588.74788 114.57059,591.21303 C 117.64011,594.32914 115.17649,592.30035 119.29985,593.34683 C 123.93642,594.52356 129.48278,593.89922 131.38568,590.67959 C 132.71838,588.4247 132.85355,584.4183 134.01304,582.14443 C 134.28506,581.61097 135.42625,587.25799 137.16586,589.6127 C 139.15672,592.30744 145.33885,592.81338 148.72623,592.81338 C 154.63255,592.81338 154.32737,591.88281 158.71019,588.5458 C 159.44136,587.98911 160.00917,583.38197 160.2866,582.67788 C 161.30274,580.09897 163.35249,584.74546 165.54131,586.41201 C 168.18956,588.42835 170.51727,588.5458 173.94886,588.5458 C 177.60569,588.5458 178.05853,586.18376 180.25452,583.21133 C 181.22343,581.89981 182.67181,581.03475 183.93283,580.01064 C 185.40592,578.81425 184.52548,584.19603 186.0347,585.34511 C 187.93594,586.79269 193.15136,587.00343 195.49319,587.4789 C 199.72907,588.33894 202.39226,587.40992 204.95167,584.81167 C 208.71116,580.9951 204.7283,575.5163 210.20637,581.07753 C 212.23825,583.14026 212.43358,585.47234 214.9356,588.01236 C 216.73717,589.84126 224.94549,586.95072 227.54693,587.4789 C 232.13826,588.4111 234.37807,581.85719 234.37807,578.94373 C 234.37807,574.75805 233.78232,573.32395 234.90352,577.87683 C 236.09368,582.70972 236.78211,584.62163 241.73465,585.87855 C 245.07257,586.7257 248.858,586.94546 252.24408,586.94546 C 255.3909,586.94546 257.25118,585.68028 259.07519,583.21133 C 261.25467,580.26125 256.70398,573.06686 260.65161,578.41029 C 263.62583,582.43612 265.39142,583.08064 270.1101,584.27822 C 273.24857,585.07474 276.44358,585.73814 280.09405,584.81167 C 283.87689,583.85161 281.2062,583.08705 282.72141,580.01064 C 285.04649,575.28991 280.67715,571.50473 285.87424,574.14271 C 289.40085,575.93278 288.82086,583.82579 292.70536,584.81166 C 297.05,585.9143 298.36428,583.556 302.68933,582.67788 C 304.46087,582.31818 311.68319,576.16046 305.84214,571.47546 C 298.86748,565.88124 310.58609,575.21333 314.77517,576.27649 C 318.12286,577.12613 323.20547,574.09649 326.861,570.94201 C 328.51292,569.51652 330.33003,564.68309 320.02988,564.54065 C 312.7891,564.44052 328.62958,564.77948 322.13173,556.53894 C 317.67641,550.88868 299.72332,552.95693 302.16385,559.20617 C 303.11087,561.6311 295.57567,558.67272 292.70537,558.67272 C 288.98851,558.67272 284.59366,558.46429 281.67047,559.20617 C 279.82694,559.67405 274.62737,558.88566 273.7884,558.67272 C 271.22037,558.02096 268.00437,558.13929 265.38085,558.13929 C 262.33098,558.13929 259.23288,557.07239 255.92237,557.07239 C 253.1433,557.07239 253.90257,554.93858 250.1422,554.93858 C 248.0183,554.93858 243.43833,550.73561 242.26013,550.13756 C 240.63,549.31013 239.33844,547.17151 238.05635,545.86997 C 235.60714,543.38359 235.1133,541.38733 234.37807,538.40171 C 233.6085,535.27679 233.85258,530.25329 233.85258,527.19931 C 233.85258,524.09557 234.01902,520.94032 233.32711,518.13069 C 232.44845,514.5627 232.80165,508.95577 232.80165,505.32794 C 232.80165,502.02217 231.51475,497.43504 230.69975,494.12554 C 229.71719,490.13561 229.12335,486.84449 229.12335,482.38969 C 229.12335,479.35415 228.59786,476.54155 228.59786,473.32107 C 228.59786,473.02611 226.6381,468.88074 226.49599,468.52004 z"
       id="path3294"
       sodipodi:nodetypes="cssssscssssssssssssssssssssssssssssssssssssssssssssssssssssssssssssssssssssssssssssssssssssssssssssssc" />
    <path
       style="fill:#a1f38e;fill-opacity:1;fill-rule:evenodd;stroke:#3e7e42;stroke-width:2.9;stroke-linecap:butt;stroke-linejoin:miter;stroke-opacity:1;stroke-miterlimit:4;stroke-dasharray:none"
       d="M 235.1624,480.16497 C 234.15143,480.83626 230.25316,480.7228 228.02184,480.16497 C 225.96894,479.65174 224.03653,480.16497 221.35732,480.16497 C 218.1595,480.16497 217.33855,480.98427 215.16883,482.06915 C 213.4814,482.91287 210.99934,484.15392 209.45639,484.92541 C 208.43303,485.4371 207.70583,490.02356 207.55224,490.63795 C 206.88308,493.31461 205.75282,494.50345 205.17206,496.82652 C 204.65309,498.90239 205.17206,501.81478 205.17206,503.96719 C 205.17206,505.89256 207.91073,507.658 208.98035,508.72763 C 209.93818,509.68549 213.87071,509.20369 215.64487,509.20369 C 219.95637,509.20369 219.9076,508.29481 221.35732,505.39533 C 222.25989,503.59015 222.3737,499.90158 222.78543,498.25465 C 223.59732,495.00706 222.43558,493.24183 223.7375,490.63795 C 224.90244,488.30803 226.35519,487.30563 229.44995,487.30563 C 231.65081,487.30563 233.76122,489.09754 236.11447,489.68586 C 236.54189,489.79271 237.8605,490.03507 238.49465,490.1619"
       id="path3296" />
    <path
       style="fill:#c2f3b7;fill-rule:evenodd;stroke:#c1f4b4;stroke-width:1px;stroke-linecap:butt;stroke-linejoin:miter;stroke-opacity:1;fill-opacity:1"
       d="M 222.78543,483.02164 C 221.16177,484.54717 219.32772,487.85762 218.02506,491.11428 C 217.05575,493.53755 218.07199,496.73286 217.07298,498.73087 C 215.58979,501.69726 217.74918,502.60814 214.21676,503.49124 C 210.91709,504.31616 209.44716,502.96906 208.98035,500.63502 C 208.54515,498.45902 208.98035,495.72182 208.98035,493.49446 C 208.98035,490.71984 209.43941,488.32594 209.93242,486.3539 C 210.45609,484.25924 214.32373,483.92023 216.12091,483.02164 C 217.3899,482.38715 221.43932,483.02164 222.78543,483.02164 z"
       id="path3298" />
    <rect
       style="fill:#9cbbe7;fill-opacity:0.98039216;stroke:#7d7ade;stroke-width:1.17245662;stroke-opacity:0.99607843"
       id="rect3304"
       width="9.8096151"
       height="22.360651"
       x="253.01514"
       y="481.20413"
       transform="matrix(0.9954691,9.5085968e-2,-9.5085968e-2,0.9954691,0,0)"
       ry="4.9048076" />
    <text
       xml:space="preserve"
       style="font-size:12.47502422px;font-style:normal;font-weight:normal;fill:#000000;fill-opacity:1;stroke:none;stroke-width:1px;stroke-linecap:butt;stroke-linejoin:miter;stroke-opacity:1;font-family:Bitstream Vera Sans"
       x="226.86768"
       y="547.13983"
       id="text3310"
       transform="matrix(1.095787,9.8162359e-2,-8.1100186e-2,0.9053211,0,0)"><tspan
         sodipodi:role="line"
         id="tspan3312"
         x="226.86768"
         y="547.13983">()</tspan></text>
  </g>
</svg>
